  0
SECTION
  2
HEADER
  9
$ACADVER
  1
AC2.10
  0
ENDSEC
  0
SECTION
  2
TABLES
  0
TABLE
  2
LAYER
 70
     8
  0
LAYER
  2
0
 62
     7
 70
0
  6
CONTINUOUS
  0
LAYER
  2
1
 62
     1
 70
0
  6
CONTINUOUS
  0
LAYER
  2
2
 62
     2
 70
0
  6
CONTINUOUS
  0
LAYER
  2
3
 62
     3
 70
0
  6
CONTINUOUS
  0
LAYER
  2
4
 62
     4
 70
0
  6
CONTINUOUS
  0
LAYER
  2
5
 62
     5
 70
0
  6
CONTINUOUS
  0
LAYER
  2
6
 62
     6
 70
0
  6
CONTINUOUS
  0
LAYER
  2
7
 62
     7
 70
0
  6
CONTINUOUS
  0
ENDTAB
  0
TABLE
  2
STYLE
 70
     1
  0
STYLE
 70
     0
  2
STANDARD
  3
TXT
 40
0.00
 41
1.00
 42
1.00
 50
0.00
 71
     0
  0
ENDTAB
  0
ENDSEC
  0
SECTION
  2
BLOCKS
  0
BLOCK
  8
0
  2
EPAD
 70
0
 10
0.0
 20
0.0
  0
POLYLINE
  8
0
 66
1
 70
1
 40
0.5
 41
0.5
  0
VERTEX
  8
0
 10
-0.25
 20
0.0
 42
1.0
  0
VERTEX
  8
0
 10
0.25
 20
0.0
 42
1.0
  0
SEQEND
  8
0
  0
ENDBLK
  8
0
  0
BLOCK
  8
0
  2
RPAD
 70
0
 10
0.0
 20
0.0
  0
TRACE
  8
0
 10
-0.5
 20
-0.5
 11
-0.5
 21
0.5
 12
0.5
 22
-0.5
 13
0.5
 23
0.5
  0
ENDBLK
  8
0
  0
ENDSEC
0
SECTION
2
ENTITIES
0
POLYLINE
8
0
66
1
40
0.016000
41
0.016000
0
VERTEX
8
0
10
-4.100000
20
2.000000
0
VERTEX
8
0
10
-4.100000
20
2.100000
0
SEQEND
8
0
0
POLYLINE
8
0
66
1
40
0.016000
41
0.016000
0
VERTEX
8
0
10
-4.400000
20
2.100000
0
VERTEX
8
0
10
-4.100000
20
2.100000
0
SEQEND
8
0
0
POLYLINE
8
0
66
1
40
0.016000
41
0.016000
0
VERTEX
8
0
10
-3.100000
20
1.800000
0
VERTEX
8
0
10
-3.200000
20
1.800000
0
VERTEX
8
0
10
-3.200000
20
2.100000
0
VERTEX
8
0
10
-4.100000
20
2.100000
0
SEQEND
8
0
0
POLYLINE
8
0
66
1
40
0.016000
41
0.016000
0
VERTEX
8
0
10
-4.100000
20
1.600000
0
VERTEX
8
0
10
-4.100000
20
1.500000
0
SEQEND
8
0
0
POLYLINE
8
0
66
1
40
0.016000
41
0.016000
0
VERTEX
8
0
10
-4.400000
20
1.500000
0
VERTEX
8
0
10
-4.100000
20
1.500000
0
SEQEND
8
0
0
POLYLINE
8
0
66
1
40
0.016000
41
0.016000
0
VERTEX
8
0
10
-3.100000
20
1.700000
0
VERTEX
8
0
10
-3.600000
20
1.700000
0
VERTEX
8
0
10
-3.600000
20
1.500000
0
VERTEX
8
0
10
-4.100000
20
1.500000
0
SEQEND
8
0
0
POLYLINE
8
0
66
1
40
0.016000
41
0.016000
0
VERTEX
8
0
10
-5.000000
20
1.800000
0
VERTEX
8
0
10
-4.900000
20
1.800000
0
SEQEND
8
0
0
POLYLINE
8
0
66
1
40
0.016000
41
0.016000
0
VERTEX
8
0
10
-4.800000
20
2.100000
0
VERTEX
8
0
10
-4.900000
20
2.100000
0
VERTEX
8
0
10
-4.900000
20
1.800000
0
SEQEND
8
0
0
POLYLINE
8
0
66
1
40
0.016000
41
0.016000
0
VERTEX
8
0
10
-4.800000
20
1.500000
0
VERTEX
8
0
10
-4.900000
20
1.500000
0
VERTEX
8
0
10
-4.900000
20
1.800000
0
SEQEND
8
0
0
POLYLINE
8
0
66
1
40
0.016000
41
0.016000
0
VERTEX
8
0
10
-3.100000
20
1.600000
0
VERTEX
8
0
10
-3.200000
20
1.600000
0
SEQEND
8
0
0
POLYLINE
8
0
66
1
40
0.016000
41
0.016000
0
VERTEX
8
0
10
-3.800000
20
-1.200000
0
VERTEX
8
0
10
-3.500000
20
-1.200000
0
VERTEX
8
0
10
-3.500000
20
-1.400000
0
VERTEX
8
0
10
-3.300000
20
-1.400000
0
SEQEND
8
0
0
POLYLINE
8
0
66
1
40
0.016000
41
0.016000
0
VERTEX
8
0
10
-4.700000
20
-0.400000
0
VERTEX
8
0
10
-4.700000
20
-0.200000
0
SEQEND
8
0
0
POLYLINE
8
0
66
1
40
0.016000
41
0.016000
0
VERTEX
8
0
10
-1.700000
20
-1.700000
0
VERTEX
8
0
10
-1.700000
20
-1.600000
0
SEQEND
8
0
0
POLYLINE
8
0
66
1
40
0.016000
41
0.016000
0
VERTEX
8
0
10
-2.800000
20
-1.900000
0
VERTEX
8
0
10
-2.800000
20
-2.000000
0
SEQEND
8
0
0
POLYLINE
8
0
66
1
40
0.016000
41
0.016000
0
VERTEX
8
0
10
-3.300000
20
-1.700000
0
VERTEX
8
0
10
-3.300000
20
-1.900000
0
SEQEND
8
0
0
POLYLINE
8
0
66
1
40
0.016000
41
0.016000
0
VERTEX
8
0
10
-4.300000
20
-1.200000
0
VERTEX
8
0
10
-4.500000
20
-1.200000
0
SEQEND
8
0
0
POLYLINE
8
0
66
1
40
0.016000
41
0.016000
0
VERTEX
8
0
10
1.500000
20
-0.600000
0
VERTEX
8
0
10
1.500000
20
-0.600000
0
SEQEND
8
0
0
POLYLINE
8
0
66
1
40
0.016000
41
0.016000
0
VERTEX
8
0
10
1.400000
20
2.100000
0
VERTEX
8
0
10
1.400000
20
0.800000
0
VERTEX
8
0
10
1.500000
20
0.800000
0
VERTEX
8
0
10
1.500000
20
0.000000
0
SEQEND
8
0
0
POLYLINE
8
0
66
1
40
0.016000
41
0.016000
0
VERTEX
8
0
10
1.900000
20
-1.200000
0
VERTEX
8
0
10
1.900000
20
-1.200000
0
SEQEND
8
0
0
POLYLINE
8
0
66
1
40
0.016000
41
0.016000
0
VERTEX
8
0
10
1.500000
20
2.100000
0
VERTEX
8
0
10
1.500000
20
0.900000
0
VERTEX
8
0
10
1.900000
20
0.900000
0
VERTEX
8
0
10
1.900000
20
-0.600000
0
SEQEND
8
0
0
POLYLINE
8
0
66
1
40
0.016000
41
0.016000
0
VERTEX
8
0
10
2.300000
20
-2.000000
0
VERTEX
8
0
10
2.300000
20
-2.000000
0
SEQEND
8
0
0
POLYLINE
8
0
66
1
40
0.016000
41
0.016000
0
VERTEX
8
0
10
1.600000
20
2.100000
0
VERTEX
8
0
10
1.600000
20
1.000000
0
VERTEX
8
0
10
2.000000
20
1.000000
0
VERTEX
8
0
10
2.000000
20
-0.100000
0
VERTEX
8
0
10
2.300000
20
-0.100000
0
VERTEX
8
0
10
2.300000
20
-1.400000
0
SEQEND
8
0
0
POLYLINE
8
0
66
1
40
0.016000
41
0.016000
0
VERTEX
8
0
10
2.800000
20
-2.600000
0
VERTEX
8
0
10
2.800000
20
-2.600000
0
SEQEND
8
0
0
POLYLINE
8
0
66
1
40
0.016000
41
0.016000
0
VERTEX
8
0
10
1.700000
20
2.100000
0
VERTEX
8
0
10
1.700000
20
1.100000
0
VERTEX
8
0
10
2.300000
20
1.100000
0
VERTEX
8
0
10
2.300000
20
0.400000
0
VERTEX
8
0
10
2.500000
20
0.400000
0
VERTEX
8
0
10
2.500000
20
-1.000000
0
VERTEX
8
0
10
2.800000
20
-1.000000
0
VERTEX
8
0
10
2.800000
20
-2.000000
0
SEQEND
8
0
0
POLYLINE
8
0
66
1
40
0.016000
41
0.016000
0
VERTEX
8
0
10
3.500000
20
-0.200000
0
VERTEX
8
0
10
3.500000
20
-0.100000
0
SEQEND
8
0
0
POLYLINE
8
0
66
1
40
0.016000
41
0.016000
0
VERTEX
8
0
10
4.200000
20
2.100000
0
VERTEX
8
0
10
4.200000
20
2.000000
0
VERTEX
8
0
10
4.100000
20
2.000000
0
VERTEX
8
0
10
4.100000
20
1.100000
0
VERTEX
8
0
10
3.600000
20
1.100000
0
VERTEX
8
0
10
3.600000
20
0.500000
0
VERTEX
8
0
10
3.500000
20
0.500000
0
SEQEND
8
0
0
POLYLINE
8
0
66
1
40
0.016000
41
0.016000
0
VERTEX
8
0
10
3.900000
20
-1.100000
0
VERTEX
8
0
10
3.900000
20
-1.000000
0
SEQEND
8
0
0
POLYLINE
8
0
66
1
40
0.016000
41
0.016000
0
VERTEX
8
0
10
4.300000
20
2.100000
0
VERTEX
8
0
10
4.300000
20
1.300000
0
VERTEX
8
0
10
4.200000
20
1.300000
0
VERTEX
8
0
10
4.200000
20
-0.300000
0
VERTEX
8
0
10
3.900000
20
-0.300000
0
VERTEX
8
0
10
3.900000
20
-0.400000
0
SEQEND
8
0
0
POLYLINE
8
0
66
1
40
0.016000
41
0.016000
0
VERTEX
8
0
10
4.200000
20
-2.000000
0
VERTEX
8
0
10
4.200000
20
-1.900000
0
SEQEND
8
0
0
POLYLINE
8
0
66
1
40
0.016000
41
0.016000
0
VERTEX
8
0
10
4.400000
20
2.100000
0
VERTEX
8
0
10
4.400000
20
-0.800000
0
VERTEX
8
0
10
4.200000
20
-0.800000
0
VERTEX
8
0
10
4.200000
20
-1.300000
0
SEQEND
8
0
0
POLYLINE
8
0
66
1
40
0.016000
41
0.016000
0
VERTEX
8
0
10
4.600000
20
-2.700000
0
VERTEX
8
0
10
4.600000
20
-2.600000
0
SEQEND
8
0
0
POLYLINE
8
0
66
1
40
0.016000
41
0.016000
0
VERTEX
8
0
10
4.500000
20
2.100000
0
VERTEX
8
0
10
4.500000
20
2.000000
0
VERTEX
8
0
10
4.600000
20
2.000000
0
VERTEX
8
0
10
4.600000
20
-2.000000
0
SEQEND
8
0
0
POLYLINE
8
0
66
1
40
0.016000
41
0.016000
0
VERTEX
8
0
10
3.200000
20
0.200000
0
VERTEX
8
0
10
3.100000
20
0.200000
0
SEQEND
8
0
0
POLYLINE
8
0
66
1
40
0.016000
41
0.016000
0
VERTEX
8
0
10
-1.200000
20
0.900000
0
VERTEX
8
0
10
-1.300000
20
0.900000
0
SEQEND
8
0
0
POLYLINE
8
0
66
1
40
0.016000
41
0.016000
0
VERTEX
8
0
10
-1.200000
20
0.800000
0
VERTEX
8
0
10
-1.300000
20
0.800000
0
SEQEND
8
0
0
POLYLINE
8
0
66
1
40
0.016000
41
0.016000
0
VERTEX
8
0
10
3.600000
20
-0.700000
0
VERTEX
8
0
10
3.600000
20
-0.700000
0
SEQEND
8
0
0
POLYLINE
8
0
66
1
40
0.016000
41
0.016000
0
VERTEX
8
0
10
-1.200000
20
0.700000
0
VERTEX
8
0
10
-1.300000
20
0.700000
0
SEQEND
8
0
0
POLYLINE
8
0
66
1
40
0.016000
41
0.016000
0
VERTEX
8
0
10
-1.200000
20
0.600000
0
VERTEX
8
0
10
-1.300000
20
0.600000
0
SEQEND
8
0
0
POLYLINE
8
0
66
1
40
0.016000
41
0.016000
0
VERTEX
8
0
10
4.300000
20
-2.300000
0
VERTEX
8
0
10
4.200000
20
-2.300000
0
SEQEND
8
0
0
POLYLINE
8
0
66
1
40
0.016000
41
0.016000
0
VERTEX
8
0
10
3.900000
20
-1.600000
0
VERTEX
8
0
10
3.800000
20
-1.600000
0
SEQEND
8
0
0
POLYLINE
8
0
66
1
40
0.016000
41
0.016000
0
VERTEX
8
0
10
-1.200000
20
0.500000
0
VERTEX
8
0
10
-1.100000
20
0.500000
0
SEQEND
8
0
0
POLYLINE
8
0
66
1
40
0.016000
41
0.016000
0
VERTEX
8
0
10
-1.200000
20
0.400000
0
VERTEX
8
0
10
-1.100000
20
0.400000
0
SEQEND
8
0
0
POLYLINE
8
0
66
1
40
0.016000
41
0.016000
0
VERTEX
8
0
10
-1.200000
20
0.300000
0
VERTEX
8
0
10
-1.100000
20
0.300000
0
SEQEND
8
0
0
POLYLINE
8
0
66
1
40
0.016000
41
0.016000
0
VERTEX
8
0
10
-1.200000
20
0.200000
0
VERTEX
8
0
10
-1.100000
20
0.200000
0
SEQEND
8
0
0
POLYLINE
8
0
66
1
40
0.016000
41
0.016000
0
VERTEX
8
0
10
2.500000
20
-2.300000
0
VERTEX
8
0
10
2.400000
20
-2.300000
0
SEQEND
8
0
0
POLYLINE
8
0
66
1
40
0.016000
41
0.016000
0
VERTEX
8
0
10
2.000000
20
-1.700000
0
VERTEX
8
0
10
1.900000
20
-1.700000
0
SEQEND
8
0
0
POLYLINE
8
0
66
1
40
0.016000
41
0.016000
0
VERTEX
8
0
10
1.600000
20
-0.900000
0
VERTEX
8
0
10
1.500000
20
-0.900000
0
SEQEND
8
0
0
POLYLINE
8
0
66
1
40
0.016000
41
0.016000
0
VERTEX
8
0
10
1.200000
20
-0.300000
0
VERTEX
8
0
10
1.100000
20
-0.300000
0
SEQEND
8
0
0
POLYLINE
8
0
66
1
40
0.016000
41
0.016000
0
VERTEX
8
0
10
-1.200000
20
1.800000
0
VERTEX
8
0
10
-1.300000
20
1.800000
0
SEQEND
8
0
0
POLYLINE
8
0
66
1
40
0.016000
41
0.016000
0
VERTEX
8
0
10
-1.200000
20
1.700000
0
VERTEX
8
0
10
-1.300000
20
1.700000
0
SEQEND
8
0
0
POLYLINE
8
0
66
1
40
0.016000
41
0.016000
0
VERTEX
8
0
10
-1.200000
20
1.600000
0
VERTEX
8
0
10
-1.300000
20
1.600000
0
SEQEND
8
0
0
POLYLINE
8
0
66
1
40
0.016000
41
0.016000
0
VERTEX
8
0
10
-1.200000
20
1.500000
0
VERTEX
8
0
10
-1.300000
20
1.500000
0
SEQEND
8
0
0
POLYLINE
8
0
66
1
40
0.016000
41
0.016000
0
VERTEX
8
0
10
-1.200000
20
1.400000
0
VERTEX
8
0
10
-1.300000
20
1.400000
0
SEQEND
8
0
0
POLYLINE
8
0
66
1
40
0.016000
41
0.016000
0
VERTEX
8
0
10
-1.200000
20
1.300000
0
VERTEX
8
0
10
-1.300000
20
1.300000
0
SEQEND
8
0
0
POLYLINE
8
0
66
1
40
0.016000
41
0.016000
0
VERTEX
8
0
10
-1.200000
20
1.200000
0
VERTEX
8
0
10
-1.300000
20
1.200000
0
SEQEND
8
0
0
POLYLINE
8
0
66
1
40
0.016000
41
0.016000
0
VERTEX
8
0
10
-1.200000
20
1.100000
0
VERTEX
8
0
10
-1.300000
20
1.100000
0
SEQEND
8
0
0
POLYLINE
8
0
66
1
40
0.016000
41
0.016000
0
VERTEX
8
0
10
-0.800000
20
2.100000
0
VERTEX
8
0
10
-0.800000
20
2.000000
0
SEQEND
8
0
0
POLYLINE
8
0
66
1
40
0.016000
41
0.016000
0
VERTEX
8
0
10
-0.100000
20
2.100000
0
VERTEX
8
0
10
-0.100000
20
2.000000
0
SEQEND
8
0
0
POLYLINE
8
0
66
1
40
0.016000
41
0.016000
0
VERTEX
8
0
10
-0.200000
20
2.100000
0
VERTEX
8
0
10
-0.200000
20
2.000000
0
SEQEND
8
0
0
POLYLINE
8
0
66
1
40
0.016000
41
0.016000
0
VERTEX
8
0
10
-0.300000
20
2.100000
0
VERTEX
8
0
10
-0.300000
20
2.000000
0
SEQEND
8
0
0
POLYLINE
8
0
66
1
40
0.016000
41
0.016000
0
VERTEX
8
0
10
-0.400000
20
2.100000
0
VERTEX
8
0
10
-0.400000
20
2.000000
0
SEQEND
8
0
0
POLYLINE
8
0
66
1
40
0.016000
41
0.016000
0
VERTEX
8
0
10
-0.500000
20
2.100000
0
VERTEX
8
0
10
-0.500000
20
2.000000
0
SEQEND
8
0
0
POLYLINE
8
0
66
1
40
0.016000
41
0.016000
0
VERTEX
8
0
10
-0.600000
20
2.100000
0
VERTEX
8
0
10
-0.600000
20
2.000000
0
SEQEND
8
0
0
POLYLINE
8
0
66
1
40
0.016000
41
0.016000
0
VERTEX
8
0
10
-0.700000
20
2.100000
0
VERTEX
8
0
10
-0.700000
20
2.000000
0
SEQEND
8
0
0
POLYLINE
8
0
66
1
40
0.016000
41
0.016000
0
VERTEX
8
0
10
2.000000
20
2.100000
0
VERTEX
8
0
10
2.000000
20
2.000000
0
SEQEND
8
0
0
POLYLINE
8
0
66
1
40
0.016000
41
0.016000
0
VERTEX
8
0
10
2.700000
20
2.100000
0
VERTEX
8
0
10
2.700000
20
2.000000
0
SEQEND
8
0
0
POLYLINE
8
0
66
1
40
0.016000
41
0.016000
0
VERTEX
8
0
10
2.600000
20
2.100000
0
VERTEX
8
0
10
2.600000
20
2.000000
0
SEQEND
8
0
0
POLYLINE
8
0
66
1
40
0.016000
41
0.016000
0
VERTEX
8
0
10
2.500000
20
2.100000
0
VERTEX
8
0
10
2.500000
20
2.000000
0
SEQEND
8
0
0
POLYLINE
8
0
66
1
40
0.016000
41
0.016000
0
VERTEX
8
0
10
2.400000
20
2.100000
0
VERTEX
8
0
10
2.400000
20
2.000000
0
SEQEND
8
0
0
POLYLINE
8
0
66
1
40
0.016000
41
0.016000
0
VERTEX
8
0
10
2.300000
20
2.100000
0
VERTEX
8
0
10
2.300000
20
2.000000
0
SEQEND
8
0
0
POLYLINE
8
0
66
1
40
0.016000
41
0.016000
0
VERTEX
8
0
10
2.200000
20
2.100000
0
VERTEX
8
0
10
2.200000
20
2.000000
0
SEQEND
8
0
0
POLYLINE
8
0
66
1
40
0.016000
41
0.016000
0
VERTEX
8
0
10
2.100000
20
2.100000
0
VERTEX
8
0
10
2.100000
20
2.000000
0
SEQEND
8
0
0
POLYLINE
8
0
66
1
40
0.016000
41
0.016000
0
VERTEX
8
0
10
-2.900000
20
-1.200000
0
VERTEX
8
0
10
-2.900000
20
-1.000000
0
SEQEND
8
0
0
POLYLINE
8
0
66
1
40
0.016000
41
0.016000
0
VERTEX
8
0
10
-1.700000
20
-1.100000
0
VERTEX
8
0
10
-1.700000
20
-1.000000
0
VERTEX
8
0
10
-2.900000
20
-1.000000
0
SEQEND
8
0
0
POLYLINE
8
0
66
1
40
0.016000
41
0.016000
0
VERTEX
8
0
10
-3.100000
20
0.900000
0
VERTEX
8
0
10
-3.200000
20
0.900000
0
VERTEX
8
0
10
-3.200000
20
-0.500000
0
VERTEX
8
0
10
-2.900000
20
-0.500000
0
VERTEX
8
0
10
-2.900000
20
-1.000000
0
SEQEND
8
0
0
POLYLINE
8
0
66
1
40
0.016000
41
0.016000
0
VERTEX
8
0
10
-3.900000
20
0.500000
0
VERTEX
8
0
10
-4.000000
20
0.500000
0
SEQEND
8
0
0
POLYLINE
8
0
66
1
40
0.016000
41
0.016000
0
VERTEX
8
0
10
-4.700000
20
0.300000
0
VERTEX
8
0
10
-4.700000
20
0.500000
0
SEQEND
8
0
0
POLYLINE
8
0
66
1
40
0.016000
41
0.016000
0
VERTEX
8
0
10
-3.100000
20
1.200000
0
VERTEX
8
0
10
-4.700000
20
1.200000
0
VERTEX
8
0
10
-4.700000
20
0.500000
0
SEQEND
8
0
0
POLYLINE
8
0
66
1
40
0.016000
41
0.016000
0
VERTEX
8
0
10
-4.500000
20
0.500000
0
VERTEX
8
0
10
-4.700000
20
0.500000
0
SEQEND
8
0
0
POLYLINE
8
0
66
1
40
0.016000
41
0.016000
0
VERTEX
8
0
10
-2.900000
20
0.100000
0
VERTEX
8
0
10
-1.400000
20
0.100000
0
VERTEX
8
0
10
-1.400000
20
1.900000
0
VERTEX
8
0
10
-2.900000
20
1.900000
0
VERTEX
8
0
10
-2.900000
20
0.100000
0
SEQEND
8
0
0
POLYLINE
8
0
66
1
40
0.016000
41
0.016000
0
VERTEX
8
0
10
-3.100000
20
1.400000
0
VERTEX
8
0
10
-2.900000
20
1.400000
0
SEQEND
8
0
0
TEXT
8
0
10
-2.850000
20
1.360000
40
0.080000
41
1.000000
1
RA0/AN0
0
TEXT
8
0
10
-3.080000
20
1.410000
40
0.080000
41
1.000000
1
2
0
POLYLINE
8
0
66
1
40
0.016000
41
0.016000
0
VERTEX
8
0
10
-3.100000
20
1.300000
0
VERTEX
8
0
10
-2.900000
20
1.300000
0
SEQEND
8
0
0
TEXT
8
0
10
-2.850000
20
1.260000
40
0.080000
41
1.000000
1
RA1/AN1
0
TEXT
8
0
10
-3.080000
20
1.310000
40
0.080000
41
1.000000
1
3
0
POLYLINE
8
0
66
1
40
0.016000
41
0.016000
0
VERTEX
8
0
10
-3.100000
20
1.200000
0
VERTEX
8
0
10
-2.900000
20
1.200000
0
SEQEND
8
0
0
TEXT
8
0
10
-2.850000
20
1.160000
40
0.080000
41
1.000000
1
RA2/AN2/VREF-
0
TEXT
8
0
10
-3.080000
20
1.210000
40
0.080000
41
1.000000
1
4
0
POLYLINE
8
0
66
1
40
0.016000
41
0.016000
0
VERTEX
8
0
10
-3.100000
20
1.000000
0
VERTEX
8
0
10
-2.900000
20
1.000000
0
SEQEND
8
0
0
TEXT
8
0
10
-2.850000
20
0.960000
40
0.080000
41
1.000000
1
RA4/T0CKI
0
TEXT
8
0
10
-3.080000
20
1.010000
40
0.080000
41
1.000000
1
6
0
POLYLINE
8
0
66
1
40
0.016000
41
0.016000
0
VERTEX
8
0
10
-3.100000
20
0.900000
0
VERTEX
8
0
10
-2.900000
20
0.900000
0
SEQEND
8
0
0
TEXT
8
0
10
-2.850000
20
0.860000
40
0.080000
41
1.000000
1
RA5/AN4/SS
0
TEXT
8
0
10
-3.080000
20
0.910000
40
0.080000
41
1.000000
1
7
0
POLYLINE
8
0
66
1
40
0.016000
41
0.016000
0
VERTEX
8
0
10
-3.100000
20
1.800000
0
VERTEX
8
0
10
-2.900000
20
1.800000
0
SEQEND
8
0
0
TEXT
8
0
10
-2.850000
20
1.760000
40
0.080000
41
1.000000
1
OSC1/CLKIN
0
TEXT
8
0
10
-3.080000
20
1.810000
40
0.080000
41
1.000000
1
9
0
POLYLINE
8
0
66
1
40
0.016000
41
0.016000
0
VERTEX
8
0
10
-3.100000
20
1.700000
0
VERTEX
8
0
10
-2.900000
20
1.700000
0
SEQEND
8
0
0
TEXT
8
0
10
-2.850000
20
1.660000
40
0.080000
41
1.000000
1
OSC2/CLKOUT
0
TEXT
8
0
10
-3.160000
20
1.710000
40
0.080000
41
1.000000
1
10
0
POLYLINE
8
0
66
1
40
0.016000
41
0.016000
0
VERTEX
8
0
10
-1.200000
20
0.800000
0
VERTEX
8
0
10
-1.400000
20
0.800000
0
SEQEND
8
0
0
TEXT
8
0
10
-2.570000
20
0.760000
40
0.080000
41
1.000000
1
RC1/T1OSI/CCP2
0
TEXT
8
0
10
-1.300000
20
0.810000
40
0.080000
41
1.000000
1
12
0
POLYLINE
8
0
66
1
40
0.016000
41
0.016000
0
VERTEX
8
0
10
-1.200000
20
0.700000
0
VERTEX
8
0
10
-1.400000
20
0.700000
0
SEQEND
8
0
0
TEXT
8
0
10
-2.090000
20
0.660000
40
0.080000
41
1.000000
1
RC2/CCP1
0
TEXT
8
0
10
-1.300000
20
0.710000
40
0.080000
41
1.000000
1
13
0
POLYLINE
8
0
66
1
40
0.016000
41
0.016000
0
VERTEX
8
0
10
-1.200000
20
0.600000
0
VERTEX
8
0
10
-1.400000
20
0.600000
0
SEQEND
8
0
0
TEXT
8
0
10
-2.330000
20
0.560000
40
0.080000
41
1.000000
1
RC3/SCK/SCL
0
TEXT
8
0
10
-1.300000
20
0.610000
40
0.080000
41
1.000000
1
14
0
POLYLINE
8
0
66
1
40
0.016000
41
0.016000
0
VERTEX
8
0
10
-1.200000
20
1.100000
0
VERTEX
8
0
10
-1.400000
20
1.100000
0
SEQEND
8
0
0
TEXT
8
0
10
-2.010000
20
1.060000
40
0.080000
41
1.000000
1
RB7/PGD
0
TEXT
8
0
10
-1.300000
20
1.110000
40
0.080000
41
1.000000
1
28
0
POLYLINE
8
0
66
1
40
0.016000
41
0.016000
0
VERTEX
8
0
10
-1.200000
20
1.200000
0
VERTEX
8
0
10
-1.400000
20
1.200000
0
SEQEND
8
0
0
TEXT
8
0
10
-2.010000
20
1.160000
40
0.080000
41
1.000000
1
RB6/PGC
0
TEXT
8
0
10
-1.300000
20
1.210000
40
0.080000
41
1.000000
1
27
0
POLYLINE
8
0
66
1
40
0.016000
41
0.016000
0
VERTEX
8
0
10
-1.200000
20
1.300000
0
VERTEX
8
0
10
-1.400000
20
1.300000
0
SEQEND
8
0
0
TEXT
8
0
10
-1.690000
20
1.260000
40
0.080000
41
1.000000
1
RB5
0
TEXT
8
0
10
-1.300000
20
1.310000
40
0.080000
41
1.000000
1
26
0
POLYLINE
8
0
66
1
40
0.016000
41
0.016000
0
VERTEX
8
0
10
-1.200000
20
1.400000
0
VERTEX
8
0
10
-1.400000
20
1.400000
0
SEQEND
8
0
0
TEXT
8
0
10
-1.690000
20
1.360000
40
0.080000
41
1.000000
1
RB4
0
TEXT
8
0
10
-1.300000
20
1.410000
40
0.080000
41
1.000000
1
25
0
POLYLINE
8
0
66
1
40
0.016000
41
0.016000
0
VERTEX
8
0
10
-1.200000
20
1.500000
0
VERTEX
8
0
10
-1.400000
20
1.500000
0
SEQEND
8
0
0
TEXT
8
0
10
-2.010000
20
1.460000
40
0.080000
41
1.000000
1
RB3/PGM
0
TEXT
8
0
10
-1.300000
20
1.510000
40
0.080000
41
1.000000
1
24
0
POLYLINE
8
0
66
1
40
0.016000
41
0.016000
0
VERTEX
8
0
10
-1.200000
20
1.600000
0
VERTEX
8
0
10
-1.400000
20
1.600000
0
SEQEND
8
0
0
TEXT
8
0
10
-1.690000
20
1.560000
40
0.080000
41
1.000000
1
RB2
0
TEXT
8
0
10
-1.300000
20
1.610000
40
0.080000
41
1.000000
1
23
0
POLYLINE
8
0
66
1
40
0.016000
41
0.016000
0
VERTEX
8
0
10
-1.200000
20
1.700000
0
VERTEX
8
0
10
-1.400000
20
1.700000
0
SEQEND
8
0
0
TEXT
8
0
10
-1.690000
20
1.660000
40
0.080000
41
1.000000
1
RB1
0
TEXT
8
0
10
-1.300000
20
1.710000
40
0.080000
41
1.000000
1
22
0
POLYLINE
8
0
66
1
40
0.016000
41
0.016000
0
VERTEX
8
0
10
-1.200000
20
1.800000
0
VERTEX
8
0
10
-1.400000
20
1.800000
0
SEQEND
8
0
0
TEXT
8
0
10
-2.010000
20
1.760000
40
0.080000
41
1.000000
1
RB0/INT
0
TEXT
8
0
10
-1.300000
20
1.810000
40
0.080000
41
1.000000
1
21
0
POLYLINE
8
0
66
1
40
0.016000
41
0.016000
0
VERTEX
8
0
10
-1.200000
20
0.200000
0
VERTEX
8
0
10
-1.400000
20
0.200000
0
SEQEND
8
0
0
TEXT
8
0
10
-2.170000
20
0.160000
40
0.080000
41
1.000000
1
RC7/RX/DT
0
TEXT
8
0
10
-1.300000
20
0.210000
40
0.080000
41
1.000000
1
18
0
POLYLINE
8
0
66
1
40
0.016000
41
0.016000
0
VERTEX
8
0
10
-1.200000
20
0.300000
0
VERTEX
8
0
10
-1.400000
20
0.300000
0
SEQEND
8
0
0
TEXT
8
0
10
-2.170000
20
0.260000
40
0.080000
41
1.000000
1
RC6/TX/CK
0
TEXT
8
0
10
-1.300000
20
0.310000
40
0.080000
41
1.000000
1
17
0
POLYLINE
8
0
66
1
40
0.016000
41
0.016000
0
VERTEX
8
0
10
-1.200000
20
0.400000
0
VERTEX
8
0
10
-1.400000
20
0.400000
0
SEQEND
8
0
0
TEXT
8
0
10
-2.010000
20
0.360000
40
0.080000
41
1.000000
1
RC5/SDO
0
TEXT
8
0
10
-1.300000
20
0.410000
40
0.080000
41
1.000000
1
16
0
POLYLINE
8
0
66
1
40
0.016000
41
0.016000
0
VERTEX
8
0
10
-1.200000
20
0.500000
0
VERTEX
8
0
10
-1.400000
20
0.500000
0
SEQEND
8
0
0
TEXT
8
0
10
-2.330000
20
0.460000
40
0.080000
41
1.000000
1
RC4/SDI/SDA
0
TEXT
8
0
10
-1.300000
20
0.510000
40
0.080000
41
1.000000
1
15
0
POLYLINE
8
0
66
1
40
0.016000
41
0.016000
0
VERTEX
8
0
10
-3.100000
20
1.100000
0
VERTEX
8
0
10
-2.900000
20
1.100000
0
SEQEND
8
0
0
TEXT
8
0
10
-2.850000
20
1.060000
40
0.080000
41
1.000000
1
RA3/AN3/VREF+
0
TEXT
8
0
10
-3.080000
20
1.110000
40
0.080000
41
1.000000
1
5
0
POLYLINE
8
0
66
1
40
0.016000
41
0.016000
0
VERTEX
8
0
10
-1.200000
20
0.900000
0
VERTEX
8
0
10
-1.400000
20
0.900000
0
SEQEND
8
0
0
TEXT
8
0
10
-2.650000
20
0.860000
40
0.080000
41
1.000000
1
RC0/T1OSO/T1CKI
0
TEXT
8
0
10
-1.300000
20
0.910000
40
0.080000
41
1.000000
1
11
0
POLYLINE
8
0
66
1
40
0.016000
41
0.016000
0
VERTEX
8
0
10
-3.100000
20
1.600000
0
VERTEX
8
0
10
-2.900000
20
1.600000
0
SEQEND
8
0
0
TEXT
8
0
10
-2.850000
20
1.560000
40
0.080000
41
1.000000
1
MCLR/Vpp/THV
0
TEXT
8
0
10
-3.080000
20
1.610000
40
0.080000
41
1.000000
1
1
0
TEXT
8
0
10
-2.908000
20
1.923000
40
0.120000
41
0.666667
1
U1
0
TEXT
8
0
10
-2.908000
20
0.002000
40
0.080000
41
1.000000
1
PIC16F876
0
POLYLINE
8
0
66
1
40
0.016000
41
0.016000
0
VERTEX
8
0
10
-3.950000
20
1.900000
0
VERTEX
8
0
10
-4.250000
20
1.900000
0
SEQEND
8
0
0
POLYLINE
8
0
66
1
40
0.016000
41
0.016000
0
VERTEX
8
0
10
-3.950000
20
1.700000
0
VERTEX
8
0
10
-4.250000
20
1.700000
0
SEQEND
8
0
0
POLYLINE
8
0
66
1
40
0.016000
41
0.016000
0
VERTEX
8
0
10
-4.200000
20
1.750000
0
VERTEX
8
0
10
-4.000000
20
1.750000
0
VERTEX
8
0
10
-4.000000
20
1.850000
0
VERTEX
8
0
10
-4.200000
20
1.850000
0
VERTEX
8
0
10
-4.200000
20
1.750000
0
SEQEND
8
0
0
POLYLINE
8
0
66
1
40
0.016000
41
0.016000
0
VERTEX
8
0
10
-4.100000
20
2.000000
0
VERTEX
8
0
10
-4.100000
20
1.900000
0
SEQEND
8
0
0
POLYLINE
8
0
66
1
40
0.016000
41
0.016000
0
VERTEX
8
0
10
-4.100000
20
1.600000
0
VERTEX
8
0
10
-4.100000
20
1.700000
0
SEQEND
8
0
0
TEXT
8
0
10
-3.892000
20
1.773000
40
0.120000
41
0.666667
1
X1
0
TEXT
8
0
10
-3.892000
20
1.668000
40
0.080000
41
1.000000
1
CRYSTAL
0
POLYLINE
8
0
66
1
40
0.016000
41
0.016000
0
VERTEX
8
0
10
-4.570000
20
2.200000
0
VERTEX
8
0
10
-4.570000
20
2.000000
0
SEQEND
8
0
0
POLYLINE
8
0
66
1
40
0.016000
41
0.016000
0
VERTEX
8
0
10
-4.630000
20
2.200000
0
VERTEX
8
0
10
-4.630000
20
2.000000
0
SEQEND
8
0
0
POLYLINE
8
0
66
1
40
0.016000
41
0.016000
0
VERTEX
8
0
10
-4.630000
20
2.100000
0
VERTEX
8
0
10
-4.700000
20
2.100000
0
SEQEND
8
0
0
POLYLINE
8
0
66
1
40
0.016000
41
0.016000
0
VERTEX
8
0
10
-4.570000
20
2.100000
0
VERTEX
8
0
10
-4.500000
20
2.100000
0
SEQEND
8
0
0
POLYLINE
8
0
66
1
40
0.016000
41
0.016000
0
VERTEX
8
0
10
-4.400000
20
2.100000
0
VERTEX
8
0
10
-4.500000
20
2.100000
0
SEQEND
8
0
0
POLYLINE
8
0
66
1
40
0.016000
41
0.016000
0
VERTEX
8
0
10
-4.800000
20
2.100000
0
VERTEX
8
0
10
-4.700000
20
2.100000
0
SEQEND
8
0
0
TEXT
8
0
10
-4.708000
20
2.223000
40
0.120000
41
0.666667
1
C1
0
TEXT
8
0
10
-4.708000
20
1.902000
40
0.080000
41
1.000000
1
15p
0
CIRCLE
8
16384
10
-4.100000
20
2.100000
40
0.020000
0
POLYLINE
8
0
66
1
40
0.016000
41
0.016000
0
VERTEX
8
0
10
-4.570000
20
1.600000
0
VERTEX
8
0
10
-4.570000
20
1.400000
0
SEQEND
8
0
0
POLYLINE
8
0
66
1
40
0.016000
41
0.016000
0
VERTEX
8
0
10
-4.630000
20
1.600000
0
VERTEX
8
0
10
-4.630000
20
1.400000
0
SEQEND
8
0
0
POLYLINE
8
0
66
1
40
0.016000
41
0.016000
0
VERTEX
8
0
10
-4.630000
20
1.500000
0
VERTEX
8
0
10
-4.700000
20
1.500000
0
SEQEND
8
0
0
POLYLINE
8
0
66
1
40
0.016000
41
0.016000
0
VERTEX
8
0
10
-4.570000
20
1.500000
0
VERTEX
8
0
10
-4.500000
20
1.500000
0
SEQEND
8
0
0
POLYLINE
8
0
66
1
40
0.016000
41
0.016000
0
VERTEX
8
0
10
-4.400000
20
1.500000
0
VERTEX
8
0
10
-4.500000
20
1.500000
0
SEQEND
8
0
0
POLYLINE
8
0
66
1
40
0.016000
41
0.016000
0
VERTEX
8
0
10
-4.800000
20
1.500000
0
VERTEX
8
0
10
-4.700000
20
1.500000
0
SEQEND
8
0
0
TEXT
8
0
10
-4.708000
20
1.623000
40
0.120000
41
0.666667
1
C2
0
TEXT
8
0
10
-4.708000
20
1.302000
40
0.080000
41
1.000000
1
15p
0
CIRCLE
8
16384
10
-4.100000
20
1.500000
40
0.020000
0
POLYLINE
8
0
66
1
40
0.016000
41
0.016000
0
VERTEX
8
0
10
-5.000000
20
1.800000
0
VERTEX
8
0
10
-5.100000
20
1.800000
0
SEQEND
8
0
0
POLYLINE
8
0
66
1
40
0.016000
41
0.016000
0
VERTEX
8
0
10
-5.100000
20
1.900000
0
VERTEX
8
0
10
-5.100000
20
1.700000
0
SEQEND
8
0
0
POLYLINE
8
0
66
1
40
0.016000
41
0.016000
0
VERTEX
8
0
10
-5.150000
20
1.850000
0
VERTEX
8
0
10
-5.150000
20
1.750000
0
SEQEND
8
0
0
POLYLINE
8
0
66
1
40
0.016000
41
0.016000
0
VERTEX
8
0
10
-5.200000
20
1.810000
0
VERTEX
8
0
10
-5.200000
20
1.790000
0
SEQEND
8
0
0
CIRCLE
8
16384
10
-4.900000
20
1.800000
40
0.020000
0
POLYLINE
8
0
66
1
40
0.016000
41
0.016000
0
VERTEX
8
0
10
-3.300000
20
1.550000
0
VERTEX
8
0
10
-3.400000
20
1.600000
0
VERTEX
8
0
10
-3.300000
20
1.650000
0
VERTEX
8
0
10
-3.300000
20
1.550000
0
SEQEND
8
0
0
POLYLINE
8
0
66
1
40
0.016000
41
0.016000
0
VERTEX
8
0
10
-3.200000
20
1.600000
0
VERTEX
8
0
10
-3.400000
20
1.600000
0
SEQEND
8
0
0
CIRCLE
8
128
10
-3.930000
20
-1.200000
40
0.020000
0
CIRCLE
8
128
10
-4.170000
20
-1.200000
40
0.020000
0
POLYLINE
8
0
66
1
40
0.016000
41
0.016000
0
VERTEX
8
0
10
-4.200000
20
-1.200000
0
VERTEX
8
0
10
-4.190000
20
-1.200000
0
SEQEND
8
0
0
POLYLINE
8
0
66
1
40
0.016000
41
0.016000
0
VERTEX
8
0
10
-3.910000
20
-1.200000
0
VERTEX
8
0
10
-3.900000
20
-1.200000
0
SEQEND
8
0
0
POLYLINE
8
0
66
1
40
0.016000
41
0.016000
0
VERTEX
8
0
10
-4.150000
20
-1.190000
0
VERTEX
8
0
10
-3.960000
20
-1.070000
0
SEQEND
8
0
0
POLYLINE
8
0
66
1
40
0.016000
41
0.016000
0
VERTEX
8
0
10
-4.300000
20
-1.200000
0
VERTEX
8
0
10
-4.200000
20
-1.200000
0
SEQEND
8
0
0
POLYLINE
8
0
66
1
40
0.016000
41
0.016000
0
VERTEX
8
0
10
-3.800000
20
-1.200000
0
VERTEX
8
0
10
-3.900000
20
-1.200000
0
SEQEND
8
0
0
CIRCLE
8
255
10
-3.900000
20
-1.100000
40
0.040000
0
POLYLINE
8
0
66
1
40
0.008000
41
0.008000
0
VERTEX
8
0
10
-3.900000
20
-1.120000
0
VERTEX
8
0
10
-3.910000
20
-1.110000
0
SEQEND
8
0
0
POLYLINE
8
0
66
1
40
0.008000
41
0.008000
0
VERTEX
8
0
10
-3.900000
20
-1.120000
0
VERTEX
8
0
10
-3.890000
20
-1.110000
0
SEQEND
8
0
0
POLYLINE
8
0
66
1
40
0.008000
41
0.008000
0
VERTEX
8
0
10
-3.900000
20
-1.120000
0
VERTEX
8
0
10
-3.900000
20
-1.080000
0
SEQEND
8
0
0
CIRCLE
8
255
10
-3.800000
20
-1.100000
40
0.040000
0
POLYLINE
8
0
66
1
40
0.008000
41
0.008000
0
VERTEX
8
0
10
-3.800000
20
-1.080000
0
VERTEX
8
0
10
-3.810000
20
-1.090000
0
SEQEND
8
0
0
POLYLINE
8
0
66
1
40
0.008000
41
0.008000
0
VERTEX
8
0
10
-3.800000
20
-1.080000
0
VERTEX
8
0
10
-3.790000
20
-1.090000
0
SEQEND
8
0
0
POLYLINE
8
0
66
1
40
0.008000
41
0.008000
0
VERTEX
8
0
10
-3.800000
20
-1.080000
0
VERTEX
8
0
10
-3.800000
20
-1.120000
0
SEQEND
8
0
0
POLYLINE
8
0
66
1
40
0.020000
41
0.020000
0
VERTEX
8
0
10
-2.790000
20
-1.680000
0
VERTEX
8
0
10
-2.710000
20
-1.390000
0
SEQEND
8
0
0
CIRCLE
8
128
10
-2.800000
20
-1.710000
40
0.020000
0
CIRCLE
8
128
10
-2.700000
20
-1.370000
40
0.020000
0
POLYLINE
8
0
66
1
40
0.016000
41
0.016000
0
VERTEX
8
0
10
-2.700000
20
-1.350000
0
VERTEX
8
0
10
-2.700000
20
-1.300000
0
SEQEND
8
0
0
CIRCLE
8
128
10
-2.900000
20
-1.370000
40
0.020000
0
POLYLINE
8
0
66
1
40
0.016000
41
0.016000
0
VERTEX
8
0
10
-2.900000
20
-1.350000
0
VERTEX
8
0
10
-2.900000
20
-1.300000
0
SEQEND
8
0
0
POLYLINE
8
0
66
1
40
0.016000
41
0.016000
0
VERTEX
8
0
10
-2.800000
20
-1.800000
0
VERTEX
8
0
10
-2.800000
20
-1.730000
0
SEQEND
8
0
0
POLYLINE
8
0
66
1
40
0.016000
41
0.016000
0
VERTEX
8
0
10
-3.100000
20
-1.450000
0
VERTEX
8
0
10
-3.102000
20
-1.439000
0
VERTEX
8
0
10
-3.109000
20
-1.430000
0
VERTEX
8
0
10
-3.118000
20
-1.421000
0
VERTEX
8
0
10
-3.131000
20
-1.414000
0
VERTEX
8
0
10
-3.146000
20
-1.408000
0
VERTEX
8
0
10
-3.163000
20
-1.404000
0
VERTEX
8
0
10
-3.181000
20
-1.401000
0
VERTEX
8
0
10
-3.200000
20
-1.400000
0
SEQEND
8
0
0
POLYLINE
8
0
66
1
40
0.016000
41
0.016000
0
VERTEX
8
0
10
-3.100000
20
-1.450000
0
VERTEX
8
0
10
-3.102000
20
-1.458000
0
VERTEX
8
0
10
-3.109000
20
-1.466000
0
VERTEX
8
0
10
-3.118000
20
-1.475000
0
VERTEX
8
0
10
-3.131000
20
-1.482000
0
VERTEX
8
0
10
-3.146000
20
-1.489000
0
VERTEX
8
0
10
-3.163000
20
-1.495000
0
VERTEX
8
0
10
-3.181000
20
-1.499000
0
VERTEX
8
0
10
-3.200000
20
-1.500000
0
SEQEND
8
0
0
POLYLINE
8
0
66
1
40
0.016000
41
0.016000
0
VERTEX
8
0
10
-3.100000
20
-1.550000
0
VERTEX
8
0
10
-3.102000
20
-1.539000
0
VERTEX
8
0
10
-3.109000
20
-1.530000
0
VERTEX
8
0
10
-3.118000
20
-1.521000
0
VERTEX
8
0
10
-3.131000
20
-1.514000
0
VERTEX
8
0
10
-3.146000
20
-1.508000
0
VERTEX
8
0
10
-3.163000
20
-1.504000
0
VERTEX
8
0
10
-3.181000
20
-1.501000
0
VERTEX
8
0
10
-3.200000
20
-1.500000
0
SEQEND
8
0
0
POLYLINE
8
0
66
1
40
0.016000
41
0.016000
0
VERTEX
8
0
10
-3.100000
20
-1.550000
0
VERTEX
8
0
10
-3.102000
20
-1.558000
0
VERTEX
8
0
10
-3.109000
20
-1.566000
0
VERTEX
8
0
10
-3.118000
20
-1.575000
0
VERTEX
8
0
10
-3.131000
20
-1.582000
0
VERTEX
8
0
10
-3.146000
20
-1.589000
0
VERTEX
8
0
10
-3.163000
20
-1.595000
0
VERTEX
8
0
10
-3.181000
20
-1.599000
0
VERTEX
8
0
10
-3.200000
20
-1.600000
0
SEQEND
8
0
0
POLYLINE
8
0
66
1
40
0.016000
41
0.016000
0
VERTEX
8
0
10
-3.100000
20
-1.650000
0
VERTEX
8
0
10
-3.102000
20
-1.639000
0
VERTEX
8
0
10
-3.109000
20
-1.630000
0
VERTEX
8
0
10
-3.118000
20
-1.621000
0
VERTEX
8
0
10
-3.131000
20
-1.614000
0
VERTEX
8
0
10
-3.146000
20
-1.608000
0
VERTEX
8
0
10
-3.163000
20
-1.604000
0
VERTEX
8
0
10
-3.181000
20
-1.601000
0
VERTEX
8
0
10
-3.200000
20
-1.600000
0
SEQEND
8
0
0
POLYLINE
8
0
66
1
40
0.016000
41
0.016000
0
VERTEX
8
0
10
-3.100000
20
-1.650000
0
VERTEX
8
0
10
-3.102000
20
-1.658000
0
VERTEX
8
0
10
-3.109000
20
-1.666000
0
VERTEX
8
0
10
-3.118000
20
-1.675000
0
VERTEX
8
0
10
-3.131000
20
-1.682000
0
VERTEX
8
0
10
-3.146000
20
-1.689000
0
VERTEX
8
0
10
-3.163000
20
-1.695000
0
VERTEX
8
0
10
-3.181000
20
-1.699000
0
VERTEX
8
0
10
-3.200000
20
-1.700000
0
SEQEND
8
0
0
POLYLINE
8
0
66
1
40
0.016000
41
0.016000
0
VERTEX
8
0
10
-3.050000
20
-1.350000
0
VERTEX
8
0
10
-3.050000
20
-1.750000
0
SEQEND
8
0
0
POLYLINE
8
0
66
1
40
0.016000
41
0.016000
0
VERTEX
8
0
10
-3.000000
20
-1.350000
0
VERTEX
8
0
10
-3.000000
20
-1.750000
0
SEQEND
8
0
0
POLYLINE
8
0
66
1
40
0.016000
41
0.016000
0
VERTEX
8
0
10
-2.800000
20
-1.900000
0
VERTEX
8
0
10
-2.800000
20
-1.800000
0
SEQEND
8
0
0
POLYLINE
8
0
66
1
40
0.016000
41
0.016000
0
VERTEX
8
0
10
-2.700000
20
-1.200000
0
VERTEX
8
0
10
-2.700000
20
-1.300000
0
SEQEND
8
0
0
POLYLINE
8
0
66
1
40
0.016000
41
0.016000
0
VERTEX
8
0
10
-2.900000
20
-1.200000
0
VERTEX
8
0
10
-2.900000
20
-1.300000
0
SEQEND
8
0
0
POLYLINE
8
0
66
1
40
0.016000
41
0.016000
0
VERTEX
8
0
10
-3.300000
20
-1.400000
0
VERTEX
8
0
10
-3.200000
20
-1.400000
0
SEQEND
8
0
0
POLYLINE
8
0
66
1
40
0.016000
41
0.016000
0
VERTEX
8
0
10
-3.300000
20
-1.700000
0
VERTEX
8
0
10
-3.200000
20
-1.700000
0
SEQEND
8
0
0
TEXT
8
0
10
-2.622000
20
-1.427000
40
0.120000
41
0.666667
1
RL1
0
TEXT
8
0
10
-2.622000
20
-1.532000
40
0.080000
41
1.000000
1
12V
0
POLYLINE
8
0
66
1
40
0.016000
41
0.016000
0
VERTEX
8
0
10
-1.700000
20
-1.700000
0
VERTEX
8
0
10
-1.700000
20
-1.800000
0
SEQEND
8
0
0
POLYLINE
8
0
66
1
40
0.016000
41
0.016000
0
VERTEX
8
0
10
-1.800000
20
-1.800000
0
VERTEX
8
0
10
-1.600000
20
-1.800000
0
SEQEND
8
0
0
POLYLINE
8
0
66
1
40
0.016000
41
0.016000
0
VERTEX
8
0
10
-1.750000
20
-1.850000
0
VERTEX
8
0
10
-1.650000
20
-1.850000
0
SEQEND
8
0
0
POLYLINE
8
0
66
1
40
0.016000
41
0.016000
0
VERTEX
8
0
10
-1.710000
20
-1.900000
0
VERTEX
8
0
10
-1.690000
20
-1.900000
0
SEQEND
8
0
0
POLYLINE
8
0
66
1
40
0.016000
41
0.016000
0
VERTEX
8
0
10
-4.700000
20
-0.400000
0
VERTEX
8
0
10
-4.700000
20
-0.500000
0
SEQEND
8
0
0
POLYLINE
8
0
66
1
40
0.016000
41
0.016000
0
VERTEX
8
0
10
-4.800000
20
-0.500000
0
VERTEX
8
0
10
-4.600000
20
-0.500000
0
SEQEND
8
0
0
POLYLINE
8
0
66
1
40
0.016000
41
0.016000
0
VERTEX
8
0
10
-4.750000
20
-0.550000
0
VERTEX
8
0
10
-4.650000
20
-0.550000
0
SEQEND
8
0
0
POLYLINE
8
0
66
1
40
0.016000
41
0.016000
0
VERTEX
8
0
10
-4.710000
20
-0.600000
0
VERTEX
8
0
10
-4.690000
20
-0.600000
0
SEQEND
8
0
0
POLYLINE
8
0
66
1
40
0.016000
41
0.016000
0
VERTEX
8
0
10
-4.740000
20
-0.100000
0
VERTEX
8
0
10
-4.660000
20
-0.100000
0
VERTEX
8
0
10
-4.660000
20
0.200000
0
VERTEX
8
0
10
-4.740000
20
0.200000
0
VERTEX
8
0
10
-4.740000
20
-0.100000
0
SEQEND
8
0
0
POLYLINE
8
0
66
1
40
0.016000
41
0.016000
0
VERTEX
8
0
10
-4.700000
20
-0.200000
0
VERTEX
8
0
10
-4.700000
20
-0.100000
0
SEQEND
8
0
0
POLYLINE
8
0
66
1
40
0.016000
41
0.016000
0
VERTEX
8
0
10
-4.700000
20
0.300000
0
VERTEX
8
0
10
-4.700000
20
0.200000
0
SEQEND
8
0
0
TEXT
8
0
10
-4.602000
20
0.073000
40
0.120000
41
0.666667
1
R3
0
TEXT
8
0
10
-4.602000
20
-0.032000
40
0.080000
41
1.000000
1
PULLDOWN
0
POLYLINE
8
0
66
1
40
0.016000
41
0.016000
0
VERTEX
8
0
10
-1.740000
20
-1.500000
0
VERTEX
8
0
10
-1.660000
20
-1.500000
0
VERTEX
8
0
10
-1.660000
20
-1.200000
0
VERTEX
8
0
10
-1.740000
20
-1.200000
0
VERTEX
8
0
10
-1.740000
20
-1.500000
0
SEQEND
8
0
0
POLYLINE
8
0
66
1
40
0.016000
41
0.016000
0
VERTEX
8
0
10
-1.700000
20
-1.600000
0
VERTEX
8
0
10
-1.700000
20
-1.500000
0
SEQEND
8
0
0
POLYLINE
8
0
66
1
40
0.016000
41
0.016000
0
VERTEX
8
0
10
-1.700000
20
-1.100000
0
VERTEX
8
0
10
-1.700000
20
-1.200000
0
SEQEND
8
0
0
TEXT
8
0
10
-1.602000
20
-1.327000
40
0.120000
41
0.666667
1
R4
0
TEXT
8
0
10
-1.602000
20
-1.432000
40
0.080000
41
1.000000
1
PULLDOWN
0
POLYLINE
8
0
66
1
40
0.016000
41
0.016000
0
VERTEX
8
0
10
-2.750000
20
-2.100000
0
VERTEX
8
0
10
-2.800000
20
-2.200000
0
VERTEX
8
0
10
-2.850000
20
-2.100000
0
VERTEX
8
0
10
-2.750000
20
-2.100000
0
SEQEND
8
0
0
POLYLINE
8
0
66
1
40
0.016000
41
0.016000
0
VERTEX
8
0
10
-2.800000
20
-2.000000
0
VERTEX
8
0
10
-2.800000
20
-2.200000
0
SEQEND
8
0
0
POLYLINE
8
0
66
1
40
0.016000
41
0.016000
0
VERTEX
8
0
10
-3.300000
20
-1.900000
0
VERTEX
8
0
10
-3.300000
20
-2.000000
0
SEQEND
8
0
0
POLYLINE
8
0
66
1
40
0.016000
41
0.016000
0
VERTEX
8
0
10
-3.400000
20
-2.000000
0
VERTEX
8
0
10
-3.200000
20
-2.000000
0
SEQEND
8
0
0
POLYLINE
8
0
66
1
40
0.016000
41
0.016000
0
VERTEX
8
0
10
-3.350000
20
-2.050000
0
VERTEX
8
0
10
-3.250000
20
-2.050000
0
SEQEND
8
0
0
POLYLINE
8
0
66
1
40
0.016000
41
0.016000
0
VERTEX
8
0
10
-3.310000
20
-2.100000
0
VERTEX
8
0
10
-3.290000
20
-2.100000
0
SEQEND
8
0
0
POLYLINE
8
0
66
1
40
0.008000
41
0.008000
0
VERTEX
8
0
10
-4.550000
20
-1.150000
0
VERTEX
8
0
10
-4.650000
20
-1.100000
0
VERTEX
8
0
10
-4.600000
20
-1.050000
0
VERTEX
8
0
10
-4.550000
20
-1.150000
0
SEQEND
8
0
0
POLYLINE
8
0
66
1
40
0.008000
41
0.008000
0
VERTEX
8
0
10
-4.500000
20
-1.200000
0
VERTEX
8
0
10
-4.550000
20
-1.150000
0
SEQEND
8
0
0
POLYLINE
8
0
66
1
40
0.008000
41
0.008000
0
VERTEX
8
0
10
-4.500000
20
-1.110000
0
VERTEX
8
0
10
-4.480000
20
-1.110000
0
SEQEND
8
0
0
POLYLINE
8
0
66
1
40
0.008000
41
0.008000
0
VERTEX
8
0
10
-4.460000
20
-1.110000
0
VERTEX
8
0
10
-4.440000
20
-1.110000
0
SEQEND
8
0
0
POLYLINE
8
0
66
1
40
0.008000
41
0.008000
0
VERTEX
8
0
10
-4.420000
20
-1.110000
0
VERTEX
8
0
10
-4.400000
20
-1.110000
0
SEQEND
8
0
0
POLYLINE
8
0
66
1
40
0.008000
41
0.008000
0
VERTEX
8
0
10
-4.380000
20
-1.110000
0
VERTEX
8
0
10
-4.360000
20
-1.110000
0
SEQEND
8
0
0
POLYLINE
8
0
66
1
40
0.008000
41
0.008000
0
VERTEX
8
0
10
-4.500000
20
-1.140000
0
VERTEX
8
0
10
-4.320000
20
-1.140000
0
SEQEND
8
0
0
POLYLINE
8
0
66
1
40
0.008000
41
0.008000
0
VERTEX
8
0
10
-4.340000
20
-1.110000
0
VERTEX
8
0
10
-4.320000
20
-1.110000
0
SEQEND
8
0
0
TEXT
8
12582912
10
-5.080000
20
-1.090000
40
0.080000
41
1.000000
1
(COM)
0
POLYLINE
8
0
66
1
40
0.016000
41
0.016000
0
VERTEX
8
0
10
-3.800000
20
0.550000
0
VERTEX
8
0
10
-3.700000
20
0.500000
0
VERTEX
8
0
10
-3.800000
20
0.450000
0
VERTEX
8
0
10
-3.800000
20
0.550000
0
SEQEND
8
0
0
POLYLINE
8
0
66
1
40
0.016000
41
0.016000
0
VERTEX
8
0
10
-3.900000
20
0.500000
0
VERTEX
8
0
10
-3.700000
20
0.500000
0
SEQEND
8
0
0
POLYLINE
8
0
66
1
40
0.016000
41
0.016000
0
VERTEX
8
0
10
-0.900000
20
2.200000
0
VERTEX
8
0
10
1.900000
20
2.200000
0
VERTEX
8
0
10
1.900000
20
3.400000
0
VERTEX
8
0
10
-0.900000
20
3.400000
0
VERTEX
8
0
10
-0.900000
20
2.200000
0
SEQEND
8
0
0
POLYLINE
8
0
66
1
40
0.016000
41
0.016000
0
VERTEX
8
0
10
-0.800000
20
2.350000
0
VERTEX
8
0
10
-0.150000
20
2.350000
0
VERTEX
8
0
10
-0.150000
20
3.300000
0
VERTEX
8
0
10
-0.800000
20
3.300000
0
VERTEX
8
0
10
-0.800000
20
2.350000
0
SEQEND
8
0
0
POLYLINE
8
0
66
1
40
0.000000
41
0.000000
0
VERTEX
8
0
10
-0.630000
20
3.170000
0
VERTEX
8
0
10
-0.600000
20
3.200000
0
VERTEX
8
0
10
-0.330000
20
3.200000
0
VERTEX
8
0
10
-0.300000
20
3.170000
0
VERTEX
8
0
10
-0.330000
20
3.140000
0
VERTEX
8
0
10
-0.600000
20
3.140000
0
VERTEX
8
0
10
-0.630000
20
3.170000
0
SEQEND
8
0
0
POLYLINE
8
0
66
1
40
0.000000
41
0.000000
0
VERTEX
8
0
10
-0.320000
20
3.130000
0
VERTEX
8
0
10
-0.290000
20
3.160000
0
VERTEX
8
0
10
-0.260000
20
3.130000
0
VERTEX
8
0
10
-0.270000
20
2.870000
0
VERTEX
8
0
10
-0.300000
20
2.840000
0
VERTEX
8
0
10
-0.330000
20
2.870000
0
VERTEX
8
0
10
-0.320000
20
3.130000
0
SEQEND
8
0
0
POLYLINE
8
0
66
1
40
0.000000
41
0.000000
0
VERTEX
8
0
10
-0.640000
20
2.830000
0
VERTEX
8
0
10
-0.610000
20
2.860000
0
VERTEX
8
0
10
-0.340000
20
2.860000
0
VERTEX
8
0
10
-0.310000
20
2.830000
0
VERTEX
8
0
10
-0.340000
20
2.800000
0
VERTEX
8
0
10
-0.610000
20
2.800000
0
VERTEX
8
0
10
-0.640000
20
2.830000
0
SEQEND
8
0
0
POLYLINE
8
0
66
1
40
0.000000
41
0.000000
0
VERTEX
8
0
10
-0.670000
20
3.130000
0
VERTEX
8
0
10
-0.640000
20
3.160000
0
VERTEX
8
0
10
-0.610000
20
3.130000
0
VERTEX
8
0
10
-0.620000
20
2.870000
0
VERTEX
8
0
10
-0.650000
20
2.840000
0
VERTEX
8
0
10
-0.680000
20
2.870000
0
VERTEX
8
0
10
-0.670000
20
3.130000
0
SEQEND
8
0
0
POLYLINE
8
0
66
1
40
0.000000
41
0.000000
0
VERTEX
8
0
10
-0.330000
20
2.790000
0
VERTEX
8
0
10
-0.300000
20
2.820000
0
VERTEX
8
0
10
-0.270000
20
2.790000
0
VERTEX
8
0
10
-0.280000
20
2.530000
0
VERTEX
8
0
10
-0.310000
20
2.500000
0
VERTEX
8
0
10
-0.340000
20
2.530000
0
VERTEX
8
0
10
-0.330000
20
2.790000
0
SEQEND
8
0
0
POLYLINE
8
0
66
1
40
0.000000
41
0.000000
0
VERTEX
8
0
10
-0.650000
20
2.490000
0
VERTEX
8
0
10
-0.620000
20
2.520000
0
VERTEX
8
0
10
-0.350000
20
2.520000
0
VERTEX
8
0
10
-0.320000
20
2.490000
0
VERTEX
8
0
10
-0.350000
20
2.460000
0
VERTEX
8
0
10
-0.620000
20
2.460000
0
VERTEX
8
0
10
-0.650000
20
2.490000
0
SEQEND
8
0
0
POLYLINE
8
0
66
1
40
0.000000
41
0.000000
0
VERTEX
8
0
10
-0.680000
20
2.790000
0
VERTEX
8
0
10
-0.650000
20
2.820000
0
VERTEX
8
0
10
-0.620000
20
2.790000
0
VERTEX
8
0
10
-0.630000
20
2.530000
0
VERTEX
8
0
10
-0.660000
20
2.500000
0
VERTEX
8
0
10
-0.690000
20
2.530000
0
VERTEX
8
0
10
-0.680000
20
2.790000
0
SEQEND
8
0
0
POLYLINE
8
0
66
1
40
0.016000
41
0.016000
0
VERTEX
8
0
10
-0.150000
20
2.350000
0
VERTEX
8
0
10
0.500000
20
2.350000
0
VERTEX
8
0
10
0.500000
20
3.300000
0
VERTEX
8
0
10
-0.150000
20
3.300000
0
VERTEX
8
0
10
-0.150000
20
2.350000
0
SEQEND
8
0
0
POLYLINE
8
0
66
1
40
0.000000
41
0.000000
0
VERTEX
8
0
10
0.020000
20
3.170000
0
VERTEX
8
0
10
0.050000
20
3.200000
0
VERTEX
8
0
10
0.320000
20
3.200000
0
VERTEX
8
0
10
0.350000
20
3.170000
0
VERTEX
8
0
10
0.320000
20
3.140000
0
VERTEX
8
0
10
0.050000
20
3.140000
0
VERTEX
8
0
10
0.020000
20
3.170000
0
SEQEND
8
0
0
POLYLINE
8
0
66
1
40
0.000000
41
0.000000
0
VERTEX
8
0
10
0.330000
20
3.130000
0
VERTEX
8
0
10
0.360000
20
3.160000
0
VERTEX
8
0
10
0.390000
20
3.130000
0
VERTEX
8
0
10
0.380000
20
2.870000
0
VERTEX
8
0
10
0.350000
20
2.840000
0
VERTEX
8
0
10
0.320000
20
2.870000
0
VERTEX
8
0
10
0.330000
20
3.130000
0
SEQEND
8
0
0
POLYLINE
8
0
66
1
40
0.000000
41
0.000000
0
VERTEX
8
0
10
0.010000
20
2.830000
0
VERTEX
8
0
10
0.040000
20
2.860000
0
VERTEX
8
0
10
0.310000
20
2.860000
0
VERTEX
8
0
10
0.340000
20
2.830000
0
VERTEX
8
0
10
0.310000
20
2.800000
0
VERTEX
8
0
10
0.040000
20
2.800000
0
VERTEX
8
0
10
0.010000
20
2.830000
0
SEQEND
8
0
0
POLYLINE
8
0
66
1
40
0.000000
41
0.000000
0
VERTEX
8
0
10
-0.020000
20
3.130000
0
VERTEX
8
0
10
0.010000
20
3.160000
0
VERTEX
8
0
10
0.040000
20
3.130000
0
VERTEX
8
0
10
0.030000
20
2.870000
0
VERTEX
8
0
10
0.000000
20
2.840000
0
VERTEX
8
0
10
-0.030000
20
2.870000
0
VERTEX
8
0
10
-0.020000
20
3.130000
0
SEQEND
8
0
0
POLYLINE
8
0
66
1
40
0.000000
41
0.000000
0
VERTEX
8
0
10
0.320000
20
2.790000
0
VERTEX
8
0
10
0.350000
20
2.820000
0
VERTEX
8
0
10
0.380000
20
2.790000
0
VERTEX
8
0
10
0.370000
20
2.530000
0
VERTEX
8
0
10
0.340000
20
2.500000
0
VERTEX
8
0
10
0.310000
20
2.530000
0
VERTEX
8
0
10
0.320000
20
2.790000
0
SEQEND
8
0
0
POLYLINE
8
0
66
1
40
0.000000
41
0.000000
0
VERTEX
8
0
10
0.000000
20
2.490000
0
VERTEX
8
0
10
0.030000
20
2.520000
0
VERTEX
8
0
10
0.300000
20
2.520000
0
VERTEX
8
0
10
0.330000
20
2.490000
0
VERTEX
8
0
10
0.300000
20
2.460000
0
VERTEX
8
0
10
0.030000
20
2.460000
0
VERTEX
8
0
10
0.000000
20
2.490000
0
SEQEND
8
0
0
POLYLINE
8
0
66
1
40
0.000000
41
0.000000
0
VERTEX
8
0
10
-0.030000
20
2.790000
0
VERTEX
8
0
10
0.000000
20
2.820000
0
VERTEX
8
0
10
0.030000
20
2.790000
0
VERTEX
8
0
10
0.020000
20
2.530000
0
VERTEX
8
0
10
-0.010000
20
2.500000
0
VERTEX
8
0
10
-0.040000
20
2.530000
0
VERTEX
8
0
10
-0.030000
20
2.790000
0
SEQEND
8
0
0
CIRCLE
8
96
10
-0.250000
20
2.450000
40
0.030000
0
CIRCLE
8
96
10
0.400000
20
2.450000
40
0.030000
0
POLYLINE
8
0
66
1
40
0.016000
41
0.016000
0
VERTEX
8
0
10
0.500000
20
2.350000
0
VERTEX
8
0
10
1.150000
20
2.350000
0
VERTEX
8
0
10
1.150000
20
3.300000
0
VERTEX
8
0
10
0.500000
20
3.300000
0
VERTEX
8
0
10
0.500000
20
2.350000
0
SEQEND
8
0
0
POLYLINE
8
0
66
1
40
0.000000
41
0.000000
0
VERTEX
8
0
10
0.670000
20
3.170000
0
VERTEX
8
0
10
0.700000
20
3.200000
0
VERTEX
8
0
10
0.970000
20
3.200000
0
VERTEX
8
0
10
1.000000
20
3.170000
0
VERTEX
8
0
10
0.970000
20
3.140000
0
VERTEX
8
0
10
0.700000
20
3.140000
0
VERTEX
8
0
10
0.670000
20
3.170000
0
SEQEND
8
0
0
POLYLINE
8
0
66
1
40
0.000000
41
0.000000
0
VERTEX
8
0
10
0.980000
20
3.130000
0
VERTEX
8
0
10
1.010000
20
3.160000
0
VERTEX
8
0
10
1.040000
20
3.130000
0
VERTEX
8
0
10
1.030000
20
2.870000
0
VERTEX
8
0
10
1.000000
20
2.840000
0
VERTEX
8
0
10
0.970000
20
2.870000
0
VERTEX
8
0
10
0.980000
20
3.130000
0
SEQEND
8
0
0
POLYLINE
8
0
66
1
40
0.000000
41
0.000000
0
VERTEX
8
0
10
0.660000
20
2.830000
0
VERTEX
8
0
10
0.690000
20
2.860000
0
VERTEX
8
0
10
0.960000
20
2.860000
0
VERTEX
8
0
10
0.990000
20
2.830000
0
VERTEX
8
0
10
0.960000
20
2.800000
0
VERTEX
8
0
10
0.690000
20
2.800000
0
VERTEX
8
0
10
0.660000
20
2.830000
0
SEQEND
8
0
0
POLYLINE
8
0
66
1
40
0.000000
41
0.000000
0
VERTEX
8
0
10
0.630000
20
3.130000
0
VERTEX
8
0
10
0.660000
20
3.160000
0
VERTEX
8
0
10
0.690000
20
3.130000
0
VERTEX
8
0
10
0.680000
20
2.870000
0
VERTEX
8
0
10
0.650000
20
2.840000
0
VERTEX
8
0
10
0.620000
20
2.870000
0
VERTEX
8
0
10
0.630000
20
3.130000
0
SEQEND
8
0
0
POLYLINE
8
0
66
1
40
0.000000
41
0.000000
0
VERTEX
8
0
10
0.970000
20
2.790000
0
VERTEX
8
0
10
1.000000
20
2.820000
0
VERTEX
8
0
10
1.030000
20
2.790000
0
VERTEX
8
0
10
1.020000
20
2.530000
0
VERTEX
8
0
10
0.990000
20
2.500000
0
VERTEX
8
0
10
0.960000
20
2.530000
0
VERTEX
8
0
10
0.970000
20
2.790000
0
SEQEND
8
0
0
POLYLINE
8
0
66
1
40
0.000000
41
0.000000
0
VERTEX
8
0
10
0.650000
20
2.490000
0
VERTEX
8
0
10
0.680000
20
2.520000
0
VERTEX
8
0
10
0.950000
20
2.520000
0
VERTEX
8
0
10
0.980000
20
2.490000
0
VERTEX
8
0
10
0.950000
20
2.460000
0
VERTEX
8
0
10
0.680000
20
2.460000
0
VERTEX
8
0
10
0.650000
20
2.490000
0
SEQEND
8
0
0
POLYLINE
8
0
66
1
40
0.000000
41
0.000000
0
VERTEX
8
0
10
0.620000
20
2.790000
0
VERTEX
8
0
10
0.650000
20
2.820000
0
VERTEX
8
0
10
0.680000
20
2.790000
0
VERTEX
8
0
10
0.670000
20
2.530000
0
VERTEX
8
0
10
0.640000
20
2.500000
0
VERTEX
8
0
10
0.610000
20
2.530000
0
VERTEX
8
0
10
0.620000
20
2.790000
0
SEQEND
8
0
0
CIRCLE
8
96
10
1.050000
20
2.450000
40
0.030000
0
POLYLINE
8
0
66
1
40
0.016000
41
0.016000
0
VERTEX
8
0
10
1.150000
20
2.350000
0
VERTEX
8
0
10
1.800000
20
2.350000
0
VERTEX
8
0
10
1.800000
20
3.300000
0
VERTEX
8
0
10
1.150000
20
3.300000
0
VERTEX
8
0
10
1.150000
20
2.350000
0
SEQEND
8
0
0
POLYLINE
8
0
66
1
40
0.000000
41
0.000000
0
VERTEX
8
0
10
1.320000
20
3.170000
0
VERTEX
8
0
10
1.350000
20
3.200000
0
VERTEX
8
0
10
1.620000
20
3.200000
0
VERTEX
8
0
10
1.650000
20
3.170000
0
VERTEX
8
0
10
1.620000
20
3.140000
0
VERTEX
8
0
10
1.350000
20
3.140000
0
VERTEX
8
0
10
1.320000
20
3.170000
0
SEQEND
8
0
0
POLYLINE
8
0
66
1
40
0.000000
41
0.000000
0
VERTEX
8
0
10
1.630000
20
3.130000
0
VERTEX
8
0
10
1.660000
20
3.160000
0
VERTEX
8
0
10
1.690000
20
3.130000
0
VERTEX
8
0
10
1.680000
20
2.870000
0
VERTEX
8
0
10
1.650000
20
2.840000
0
VERTEX
8
0
10
1.620000
20
2.870000
0
VERTEX
8
0
10
1.630000
20
3.130000
0
SEQEND
8
0
0
POLYLINE
8
0
66
1
40
0.000000
41
0.000000
0
VERTEX
8
0
10
1.310000
20
2.830000
0
VERTEX
8
0
10
1.340000
20
2.860000
0
VERTEX
8
0
10
1.610000
20
2.860000
0
VERTEX
8
0
10
1.640000
20
2.830000
0
VERTEX
8
0
10
1.610000
20
2.800000
0
VERTEX
8
0
10
1.340000
20
2.800000
0
VERTEX
8
0
10
1.310000
20
2.830000
0
SEQEND
8
0
0
POLYLINE
8
0
66
1
40
0.000000
41
0.000000
0
VERTEX
8
0
10
1.280000
20
3.130000
0
VERTEX
8
0
10
1.310000
20
3.160000
0
VERTEX
8
0
10
1.340000
20
3.130000
0
VERTEX
8
0
10
1.330000
20
2.870000
0
VERTEX
8
0
10
1.300000
20
2.840000
0
VERTEX
8
0
10
1.270000
20
2.870000
0
VERTEX
8
0
10
1.280000
20
3.130000
0
SEQEND
8
0
0
POLYLINE
8
0
66
1
40
0.000000
41
0.000000
0
VERTEX
8
0
10
1.620000
20
2.790000
0
VERTEX
8
0
10
1.650000
20
2.820000
0
VERTEX
8
0
10
1.680000
20
2.790000
0
VERTEX
8
0
10
1.670000
20
2.530000
0
VERTEX
8
0
10
1.640000
20
2.500000
0
VERTEX
8
0
10
1.610000
20
2.530000
0
VERTEX
8
0
10
1.620000
20
2.790000
0
SEQEND
8
0
0
POLYLINE
8
0
66
1
40
0.000000
41
0.000000
0
VERTEX
8
0
10
1.300000
20
2.490000
0
VERTEX
8
0
10
1.330000
20
2.520000
0
VERTEX
8
0
10
1.600000
20
2.520000
0
VERTEX
8
0
10
1.630000
20
2.490000
0
VERTEX
8
0
10
1.600000
20
2.460000
0
VERTEX
8
0
10
1.330000
20
2.460000
0
VERTEX
8
0
10
1.300000
20
2.490000
0
SEQEND
8
0
0
POLYLINE
8
0
66
1
40
0.000000
41
0.000000
0
VERTEX
8
0
10
1.270000
20
2.790000
0
VERTEX
8
0
10
1.300000
20
2.820000
0
VERTEX
8
0
10
1.330000
20
2.790000
0
VERTEX
8
0
10
1.320000
20
2.530000
0
VERTEX
8
0
10
1.290000
20
2.500000
0
VERTEX
8
0
10
1.260000
20
2.530000
0
VERTEX
8
0
10
1.270000
20
2.790000
0
SEQEND
8
0
0
CIRCLE
8
96
10
1.700000
20
2.450000
40
0.030000
0
TEXT
8
0
10
-0.780000
20
2.240000
40
0.080000
41
1.000000
1
ABCDEFG DP
0
TEXT
8
0
10
1.390000
20
2.240000
40
0.080000
41
1.000000
1
1234
0
POLYLINE
8
0
66
1
40
0.016000
41
0.016000
0
VERTEX
8
0
10
1.400000
20
2.100000
0
VERTEX
8
0
10
1.400000
20
2.200000
0
SEQEND
8
0
0
POLYLINE
8
0
66
1
40
0.016000
41
0.016000
0
VERTEX
8
0
10
1.500000
20
2.100000
0
VERTEX
8
0
10
1.500000
20
2.200000
0
SEQEND
8
0
0
POLYLINE
8
0
66
1
40
0.016000
41
0.016000
0
VERTEX
8
0
10
1.600000
20
2.100000
0
VERTEX
8
0
10
1.600000
20
2.200000
0
SEQEND
8
0
0
POLYLINE
8
0
66
1
40
0.016000
41
0.016000
0
VERTEX
8
0
10
1.700000
20
2.100000
0
VERTEX
8
0
10
1.700000
20
2.200000
0
SEQEND
8
0
0
POLYLINE
8
0
66
1
40
0.016000
41
0.016000
0
VERTEX
8
0
10
-0.800000
20
2.100000
0
VERTEX
8
0
10
-0.800000
20
2.200000
0
SEQEND
8
0
0
POLYLINE
8
0
66
1
40
0.016000
41
0.016000
0
VERTEX
8
0
10
-0.700000
20
2.100000
0
VERTEX
8
0
10
-0.700000
20
2.200000
0
SEQEND
8
0
0
POLYLINE
8
0
66
1
40
0.016000
41
0.016000
0
VERTEX
8
0
10
-0.600000
20
2.100000
0
VERTEX
8
0
10
-0.600000
20
2.200000
0
SEQEND
8
0
0
POLYLINE
8
0
66
1
40
0.016000
41
0.016000
0
VERTEX
8
0
10
-0.500000
20
2.100000
0
VERTEX
8
0
10
-0.500000
20
2.200000
0
SEQEND
8
0
0
POLYLINE
8
0
66
1
40
0.016000
41
0.016000
0
VERTEX
8
0
10
-0.400000
20
2.100000
0
VERTEX
8
0
10
-0.400000
20
2.200000
0
SEQEND
8
0
0
POLYLINE
8
0
66
1
40
0.016000
41
0.016000
0
VERTEX
8
0
10
-0.300000
20
2.100000
0
VERTEX
8
0
10
-0.300000
20
2.200000
0
SEQEND
8
0
0
POLYLINE
8
0
66
1
40
0.016000
41
0.016000
0
VERTEX
8
0
10
-0.200000
20
2.100000
0
VERTEX
8
0
10
-0.200000
20
2.200000
0
SEQEND
8
0
0
POLYLINE
8
0
66
1
40
0.016000
41
0.016000
0
VERTEX
8
0
10
-0.100000
20
2.100000
0
VERTEX
8
0
10
-0.100000
20
2.200000
0
SEQEND
8
0
0
POLYLINE
8
0
66
1
40
0.016000
41
0.016000
0
VERTEX
8
0
10
1.900000
20
2.200000
0
VERTEX
8
0
10
4.700000
20
2.200000
0
VERTEX
8
0
10
4.700000
20
3.400000
0
VERTEX
8
0
10
1.900000
20
3.400000
0
VERTEX
8
0
10
1.900000
20
2.200000
0
SEQEND
8
0
0
POLYLINE
8
0
66
1
40
0.016000
41
0.016000
0
VERTEX
8
0
10
2.000000
20
2.350000
0
VERTEX
8
0
10
2.650000
20
2.350000
0
VERTEX
8
0
10
2.650000
20
3.300000
0
VERTEX
8
0
10
2.000000
20
3.300000
0
VERTEX
8
0
10
2.000000
20
2.350000
0
SEQEND
8
0
0
POLYLINE
8
0
66
1
40
0.000000
41
0.000000
0
VERTEX
8
0
10
2.170000
20
3.170000
0
VERTEX
8
0
10
2.200000
20
3.200000
0
VERTEX
8
0
10
2.470000
20
3.200000
0
VERTEX
8
0
10
2.500000
20
3.170000
0
VERTEX
8
0
10
2.470000
20
3.140000
0
VERTEX
8
0
10
2.200000
20
3.140000
0
VERTEX
8
0
10
2.170000
20
3.170000
0
SEQEND
8
0
0
POLYLINE
8
0
66
1
40
0.000000
41
0.000000
0
VERTEX
8
0
10
2.480000
20
3.130000
0
VERTEX
8
0
10
2.510000
20
3.160000
0
VERTEX
8
0
10
2.540000
20
3.130000
0
VERTEX
8
0
10
2.530000
20
2.870000
0
VERTEX
8
0
10
2.500000
20
2.840000
0
VERTEX
8
0
10
2.470000
20
2.870000
0
VERTEX
8
0
10
2.480000
20
3.130000
0
SEQEND
8
0
0
POLYLINE
8
0
66
1
40
0.000000
41
0.000000
0
VERTEX
8
0
10
2.160000
20
2.830000
0
VERTEX
8
0
10
2.190000
20
2.860000
0
VERTEX
8
0
10
2.460000
20
2.860000
0
VERTEX
8
0
10
2.490000
20
2.830000
0
VERTEX
8
0
10
2.460000
20
2.800000
0
VERTEX
8
0
10
2.190000
20
2.800000
0
VERTEX
8
0
10
2.160000
20
2.830000
0
SEQEND
8
0
0
POLYLINE
8
0
66
1
40
0.000000
41
0.000000
0
VERTEX
8
0
10
2.130000
20
3.130000
0
VERTEX
8
0
10
2.160000
20
3.160000
0
VERTEX
8
0
10
2.190000
20
3.130000
0
VERTEX
8
0
10
2.180000
20
2.870000
0
VERTEX
8
0
10
2.150000
20
2.840000
0
VERTEX
8
0
10
2.120000
20
2.870000
0
VERTEX
8
0
10
2.130000
20
3.130000
0
SEQEND
8
0
0
POLYLINE
8
0
66
1
40
0.000000
41
0.000000
0
VERTEX
8
0
10
2.470000
20
2.790000
0
VERTEX
8
0
10
2.500000
20
2.820000
0
VERTEX
8
0
10
2.530000
20
2.790000
0
VERTEX
8
0
10
2.520000
20
2.530000
0
VERTEX
8
0
10
2.490000
20
2.500000
0
VERTEX
8
0
10
2.460000
20
2.530000
0
VERTEX
8
0
10
2.470000
20
2.790000
0
SEQEND
8
0
0
POLYLINE
8
0
66
1
40
0.000000
41
0.000000
0
VERTEX
8
0
10
2.150000
20
2.490000
0
VERTEX
8
0
10
2.180000
20
2.520000
0
VERTEX
8
0
10
2.450000
20
2.520000
0
VERTEX
8
0
10
2.480000
20
2.490000
0
VERTEX
8
0
10
2.450000
20
2.460000
0
VERTEX
8
0
10
2.180000
20
2.460000
0
VERTEX
8
0
10
2.150000
20
2.490000
0
SEQEND
8
0
0
POLYLINE
8
0
66
1
40
0.000000
41
0.000000
0
VERTEX
8
0
10
2.120000
20
2.790000
0
VERTEX
8
0
10
2.150000
20
2.820000
0
VERTEX
8
0
10
2.180000
20
2.790000
0
VERTEX
8
0
10
2.170000
20
2.530000
0
VERTEX
8
0
10
2.140000
20
2.500000
0
VERTEX
8
0
10
2.110000
20
2.530000
0
VERTEX
8
0
10
2.120000
20
2.790000
0
SEQEND
8
0
0
POLYLINE
8
0
66
1
40
0.016000
41
0.016000
0
VERTEX
8
0
10
2.650000
20
2.350000
0
VERTEX
8
0
10
3.300000
20
2.350000
0
VERTEX
8
0
10
3.300000
20
3.300000
0
VERTEX
8
0
10
2.650000
20
3.300000
0
VERTEX
8
0
10
2.650000
20
2.350000
0
SEQEND
8
0
0
POLYLINE
8
0
66
1
40
0.000000
41
0.000000
0
VERTEX
8
0
10
2.820000
20
3.170000
0
VERTEX
8
0
10
2.850000
20
3.200000
0
VERTEX
8
0
10
3.120000
20
3.200000
0
VERTEX
8
0
10
3.150000
20
3.170000
0
VERTEX
8
0
10
3.120000
20
3.140000
0
VERTEX
8
0
10
2.850000
20
3.140000
0
VERTEX
8
0
10
2.820000
20
3.170000
0
SEQEND
8
0
0
POLYLINE
8
0
66
1
40
0.000000
41
0.000000
0
VERTEX
8
0
10
3.130000
20
3.130000
0
VERTEX
8
0
10
3.160000
20
3.160000
0
VERTEX
8
0
10
3.190000
20
3.130000
0
VERTEX
8
0
10
3.180000
20
2.870000
0
VERTEX
8
0
10
3.150000
20
2.840000
0
VERTEX
8
0
10
3.120000
20
2.870000
0
VERTEX
8
0
10
3.130000
20
3.130000
0
SEQEND
8
0
0
POLYLINE
8
0
66
1
40
0.000000
41
0.000000
0
VERTEX
8
0
10
2.810000
20
2.830000
0
VERTEX
8
0
10
2.840000
20
2.860000
0
VERTEX
8
0
10
3.110000
20
2.860000
0
VERTEX
8
0
10
3.140000
20
2.830000
0
VERTEX
8
0
10
3.110000
20
2.800000
0
VERTEX
8
0
10
2.840000
20
2.800000
0
VERTEX
8
0
10
2.810000
20
2.830000
0
SEQEND
8
0
0
POLYLINE
8
0
66
1
40
0.000000
41
0.000000
0
VERTEX
8
0
10
2.780000
20
3.130000
0
VERTEX
8
0
10
2.810000
20
3.160000
0
VERTEX
8
0
10
2.840000
20
3.130000
0
VERTEX
8
0
10
2.830000
20
2.870000
0
VERTEX
8
0
10
2.800000
20
2.840000
0
VERTEX
8
0
10
2.770000
20
2.870000
0
VERTEX
8
0
10
2.780000
20
3.130000
0
SEQEND
8
0
0
POLYLINE
8
0
66
1
40
0.000000
41
0.000000
0
VERTEX
8
0
10
3.120000
20
2.790000
0
VERTEX
8
0
10
3.150000
20
2.820000
0
VERTEX
8
0
10
3.180000
20
2.790000
0
VERTEX
8
0
10
3.170000
20
2.530000
0
VERTEX
8
0
10
3.140000
20
2.500000
0
VERTEX
8
0
10
3.110000
20
2.530000
0
VERTEX
8
0
10
3.120000
20
2.790000
0
SEQEND
8
0
0
POLYLINE
8
0
66
1
40
0.000000
41
0.000000
0
VERTEX
8
0
10
2.800000
20
2.490000
0
VERTEX
8
0
10
2.830000
20
2.520000
0
VERTEX
8
0
10
3.100000
20
2.520000
0
VERTEX
8
0
10
3.130000
20
2.490000
0
VERTEX
8
0
10
3.100000
20
2.460000
0
VERTEX
8
0
10
2.830000
20
2.460000
0
VERTEX
8
0
10
2.800000
20
2.490000
0
SEQEND
8
0
0
POLYLINE
8
0
66
1
40
0.000000
41
0.000000
0
VERTEX
8
0
10
2.770000
20
2.790000
0
VERTEX
8
0
10
2.800000
20
2.820000
0
VERTEX
8
0
10
2.830000
20
2.790000
0
VERTEX
8
0
10
2.820000
20
2.530000
0
VERTEX
8
0
10
2.790000
20
2.500000
0
VERTEX
8
0
10
2.760000
20
2.530000
0
VERTEX
8
0
10
2.770000
20
2.790000
0
SEQEND
8
0
0
CIRCLE
8
96
10
2.550000
20
2.450000
40
0.030000
0
CIRCLE
8
96
10
3.200000
20
2.450000
40
0.030000
0
POLYLINE
8
0
66
1
40
0.016000
41
0.016000
0
VERTEX
8
0
10
3.300000
20
2.350000
0
VERTEX
8
0
10
3.950000
20
2.350000
0
VERTEX
8
0
10
3.950000
20
3.300000
0
VERTEX
8
0
10
3.300000
20
3.300000
0
VERTEX
8
0
10
3.300000
20
2.350000
0
SEQEND
8
0
0
POLYLINE
8
0
66
1
40
0.000000
41
0.000000
0
VERTEX
8
0
10
3.470000
20
3.170000
0
VERTEX
8
0
10
3.500000
20
3.200000
0
VERTEX
8
0
10
3.770000
20
3.200000
0
VERTEX
8
0
10
3.800000
20
3.170000
0
VERTEX
8
0
10
3.770000
20
3.140000
0
VERTEX
8
0
10
3.500000
20
3.140000
0
VERTEX
8
0
10
3.470000
20
3.170000
0
SEQEND
8
0
0
POLYLINE
8
0
66
1
40
0.000000
41
0.000000
0
VERTEX
8
0
10
3.780000
20
3.130000
0
VERTEX
8
0
10
3.810000
20
3.160000
0
VERTEX
8
0
10
3.840000
20
3.130000
0
VERTEX
8
0
10
3.830000
20
2.870000
0
VERTEX
8
0
10
3.800000
20
2.840000
0
VERTEX
8
0
10
3.770000
20
2.870000
0
VERTEX
8
0
10
3.780000
20
3.130000
0
SEQEND
8
0
0
POLYLINE
8
0
66
1
40
0.000000
41
0.000000
0
VERTEX
8
0
10
3.460000
20
2.830000
0
VERTEX
8
0
10
3.490000
20
2.860000
0
VERTEX
8
0
10
3.760000
20
2.860000
0
VERTEX
8
0
10
3.790000
20
2.830000
0
VERTEX
8
0
10
3.760000
20
2.800000
0
VERTEX
8
0
10
3.490000
20
2.800000
0
VERTEX
8
0
10
3.460000
20
2.830000
0
SEQEND
8
0
0
POLYLINE
8
0
66
1
40
0.000000
41
0.000000
0
VERTEX
8
0
10
3.430000
20
3.130000
0
VERTEX
8
0
10
3.460000
20
3.160000
0
VERTEX
8
0
10
3.490000
20
3.130000
0
VERTEX
8
0
10
3.480000
20
2.870000
0
VERTEX
8
0
10
3.450000
20
2.840000
0
VERTEX
8
0
10
3.420000
20
2.870000
0
VERTEX
8
0
10
3.430000
20
3.130000
0
SEQEND
8
0
0
POLYLINE
8
0
66
1
40
0.000000
41
0.000000
0
VERTEX
8
0
10
3.770000
20
2.790000
0
VERTEX
8
0
10
3.800000
20
2.820000
0
VERTEX
8
0
10
3.830000
20
2.790000
0
VERTEX
8
0
10
3.820000
20
2.530000
0
VERTEX
8
0
10
3.790000
20
2.500000
0
VERTEX
8
0
10
3.760000
20
2.530000
0
VERTEX
8
0
10
3.770000
20
2.790000
0
SEQEND
8
0
0
POLYLINE
8
0
66
1
40
0.000000
41
0.000000
0
VERTEX
8
0
10
3.450000
20
2.490000
0
VERTEX
8
0
10
3.480000
20
2.520000
0
VERTEX
8
0
10
3.750000
20
2.520000
0
VERTEX
8
0
10
3.780000
20
2.490000
0
VERTEX
8
0
10
3.750000
20
2.460000
0
VERTEX
8
0
10
3.480000
20
2.460000
0
VERTEX
8
0
10
3.450000
20
2.490000
0
SEQEND
8
0
0
POLYLINE
8
0
66
1
40
0.000000
41
0.000000
0
VERTEX
8
0
10
3.420000
20
2.790000
0
VERTEX
8
0
10
3.450000
20
2.820000
0
VERTEX
8
0
10
3.480000
20
2.790000
0
VERTEX
8
0
10
3.470000
20
2.530000
0
VERTEX
8
0
10
3.440000
20
2.500000
0
VERTEX
8
0
10
3.410000
20
2.530000
0
VERTEX
8
0
10
3.420000
20
2.790000
0
SEQEND
8
0
0
CIRCLE
8
96
10
3.850000
20
2.450000
40
0.030000
0
POLYLINE
8
0
66
1
40
0.016000
41
0.016000
0
VERTEX
8
0
10
3.950000
20
2.350000
0
VERTEX
8
0
10
4.600000
20
2.350000
0
VERTEX
8
0
10
4.600000
20
3.300000
0
VERTEX
8
0
10
3.950000
20
3.300000
0
VERTEX
8
0
10
3.950000
20
2.350000
0
SEQEND
8
0
0
POLYLINE
8
0
66
1
40
0.000000
41
0.000000
0
VERTEX
8
0
10
4.120000
20
3.170000
0
VERTEX
8
0
10
4.150000
20
3.200000
0
VERTEX
8
0
10
4.420000
20
3.200000
0
VERTEX
8
0
10
4.450000
20
3.170000
0
VERTEX
8
0
10
4.420000
20
3.140000
0
VERTEX
8
0
10
4.150000
20
3.140000
0
VERTEX
8
0
10
4.120000
20
3.170000
0
SEQEND
8
0
0
POLYLINE
8
0
66
1
40
0.000000
41
0.000000
0
VERTEX
8
0
10
4.430000
20
3.130000
0
VERTEX
8
0
10
4.460000
20
3.160000
0
VERTEX
8
0
10
4.490000
20
3.130000
0
VERTEX
8
0
10
4.480000
20
2.870000
0
VERTEX
8
0
10
4.450000
20
2.840000
0
VERTEX
8
0
10
4.420000
20
2.870000
0
VERTEX
8
0
10
4.430000
20
3.130000
0
SEQEND
8
0
0
POLYLINE
8
0
66
1
40
0.000000
41
0.000000
0
VERTEX
8
0
10
4.110000
20
2.830000
0
VERTEX
8
0
10
4.140000
20
2.860000
0
VERTEX
8
0
10
4.410000
20
2.860000
0
VERTEX
8
0
10
4.440000
20
2.830000
0
VERTEX
8
0
10
4.410000
20
2.800000
0
VERTEX
8
0
10
4.140000
20
2.800000
0
VERTEX
8
0
10
4.110000
20
2.830000
0
SEQEND
8
0
0
POLYLINE
8
0
66
1
40
0.000000
41
0.000000
0
VERTEX
8
0
10
4.080000
20
3.130000
0
VERTEX
8
0
10
4.110000
20
3.160000
0
VERTEX
8
0
10
4.140000
20
3.130000
0
VERTEX
8
0
10
4.130000
20
2.870000
0
VERTEX
8
0
10
4.100000
20
2.840000
0
VERTEX
8
0
10
4.070000
20
2.870000
0
VERTEX
8
0
10
4.080000
20
3.130000
0
SEQEND
8
0
0
POLYLINE
8
0
66
1
40
0.000000
41
0.000000
0
VERTEX
8
0
10
4.420000
20
2.790000
0
VERTEX
8
0
10
4.450000
20
2.820000
0
VERTEX
8
0
10
4.480000
20
2.790000
0
VERTEX
8
0
10
4.470000
20
2.530000
0
VERTEX
8
0
10
4.440000
20
2.500000
0
VERTEX
8
0
10
4.410000
20
2.530000
0
VERTEX
8
0
10
4.420000
20
2.790000
0
SEQEND
8
0
0
POLYLINE
8
0
66
1
40
0.000000
41
0.000000
0
VERTEX
8
0
10
4.100000
20
2.490000
0
VERTEX
8
0
10
4.130000
20
2.520000
0
VERTEX
8
0
10
4.400000
20
2.520000
0
VERTEX
8
0
10
4.430000
20
2.490000
0
VERTEX
8
0
10
4.400000
20
2.460000
0
VERTEX
8
0
10
4.130000
20
2.460000
0
VERTEX
8
0
10
4.100000
20
2.490000
0
SEQEND
8
0
0
POLYLINE
8
0
66
1
40
0.000000
41
0.000000
0
VERTEX
8
0
10
4.070000
20
2.790000
0
VERTEX
8
0
10
4.100000
20
2.820000
0
VERTEX
8
0
10
4.130000
20
2.790000
0
VERTEX
8
0
10
4.120000
20
2.530000
0
VERTEX
8
0
10
4.090000
20
2.500000
0
VERTEX
8
0
10
4.060000
20
2.530000
0
VERTEX
8
0
10
4.070000
20
2.790000
0
SEQEND
8
0
0
CIRCLE
8
96
10
4.500000
20
2.450000
40
0.030000
0
TEXT
8
0
10
2.020000
20
2.240000
40
0.080000
41
1.000000
1
ABCDEFG DP
0
TEXT
8
0
10
4.190000
20
2.240000
40
0.080000
41
1.000000
1
1234
0
POLYLINE
8
0
66
1
40
0.016000
41
0.016000
0
VERTEX
8
0
10
4.200000
20
2.100000
0
VERTEX
8
0
10
4.200000
20
2.200000
0
SEQEND
8
0
0
POLYLINE
8
0
66
1
40
0.016000
41
0.016000
0
VERTEX
8
0
10
4.300000
20
2.100000
0
VERTEX
8
0
10
4.300000
20
2.200000
0
SEQEND
8
0
0
POLYLINE
8
0
66
1
40
0.016000
41
0.016000
0
VERTEX
8
0
10
4.400000
20
2.100000
0
VERTEX
8
0
10
4.400000
20
2.200000
0
SEQEND
8
0
0
POLYLINE
8
0
66
1
40
0.016000
41
0.016000
0
VERTEX
8
0
10
4.500000
20
2.100000
0
VERTEX
8
0
10
4.500000
20
2.200000
0
SEQEND
8
0
0
POLYLINE
8
0
66
1
40
0.016000
41
0.016000
0
VERTEX
8
0
10
2.000000
20
2.100000
0
VERTEX
8
0
10
2.000000
20
2.200000
0
SEQEND
8
0
0
POLYLINE
8
0
66
1
40
0.016000
41
0.016000
0
VERTEX
8
0
10
2.100000
20
2.100000
0
VERTEX
8
0
10
2.100000
20
2.200000
0
SEQEND
8
0
0
POLYLINE
8
0
66
1
40
0.016000
41
0.016000
0
VERTEX
8
0
10
2.200000
20
2.100000
0
VERTEX
8
0
10
2.200000
20
2.200000
0
SEQEND
8
0
0
POLYLINE
8
0
66
1
40
0.016000
41
0.016000
0
VERTEX
8
0
10
2.300000
20
2.100000
0
VERTEX
8
0
10
2.300000
20
2.200000
0
SEQEND
8
0
0
POLYLINE
8
0
66
1
40
0.016000
41
0.016000
0
VERTEX
8
0
10
2.400000
20
2.100000
0
VERTEX
8
0
10
2.400000
20
2.200000
0
SEQEND
8
0
0
POLYLINE
8
0
66
1
40
0.016000
41
0.016000
0
VERTEX
8
0
10
2.500000
20
2.100000
0
VERTEX
8
0
10
2.500000
20
2.200000
0
SEQEND
8
0
0
POLYLINE
8
0
66
1
40
0.016000
41
0.016000
0
VERTEX
8
0
10
2.600000
20
2.100000
0
VERTEX
8
0
10
2.600000
20
2.200000
0
SEQEND
8
0
0
POLYLINE
8
0
66
1
40
0.016000
41
0.016000
0
VERTEX
8
0
10
2.700000
20
2.100000
0
VERTEX
8
0
10
2.700000
20
2.200000
0
SEQEND
8
0
0
POLYLINE
8
0
66
1
40
0.016000
41
0.016000
0
VERTEX
8
0
10
1.550000
20
-0.700000
0
VERTEX
8
0
10
1.500000
20
-0.800000
0
VERTEX
8
0
10
1.450000
20
-0.700000
0
VERTEX
8
0
10
1.550000
20
-0.700000
0
SEQEND
8
0
0
POLYLINE
8
0
66
1
40
0.016000
41
0.016000
0
VERTEX
8
0
10
1.500000
20
-0.600000
0
VERTEX
8
0
10
1.500000
20
-0.800000
0
SEQEND
8
0
0
POLYLINE
8
0
66
1
40
0.016000
41
0.016000
0
VERTEX
8
0
10
1.950000
20
-1.300000
0
VERTEX
8
0
10
1.900000
20
-1.400000
0
VERTEX
8
0
10
1.850000
20
-1.300000
0
VERTEX
8
0
10
1.950000
20
-1.300000
0
SEQEND
8
0
0
POLYLINE
8
0
66
1
40
0.016000
41
0.016000
0
VERTEX
8
0
10
1.900000
20
-1.200000
0
VERTEX
8
0
10
1.900000
20
-1.400000
0
SEQEND
8
0
0
POLYLINE
8
0
66
1
40
0.016000
41
0.016000
0
VERTEX
8
0
10
2.250000
20
-2.100000
0
VERTEX
8
0
10
2.300000
20
-2.200000
0
VERTEX
8
0
10
2.350000
20
-2.100000
0
VERTEX
8
0
10
2.250000
20
-2.100000
0
SEQEND
8
0
0
POLYLINE
8
0
66
1
40
0.016000
41
0.016000
0
VERTEX
8
0
10
2.300000
20
-2.000000
0
VERTEX
8
0
10
2.300000
20
-2.200000
0
SEQEND
8
0
0
POLYLINE
8
0
66
1
40
0.016000
41
0.016000
0
VERTEX
8
0
10
2.850000
20
-2.700000
0
VERTEX
8
0
10
2.800000
20
-2.800000
0
VERTEX
8
0
10
2.750000
20
-2.700000
0
VERTEX
8
0
10
2.850000
20
-2.700000
0
SEQEND
8
0
0
POLYLINE
8
0
66
1
40
0.016000
41
0.016000
0
VERTEX
8
0
10
2.800000
20
-2.600000
0
VERTEX
8
0
10
2.800000
20
-2.800000
0
SEQEND
8
0
0
POLYLINE
8
0
66
1
40
0.016000
41
0.016000
0
VERTEX
8
0
10
1.500000
20
-0.100000
0
VERTEX
8
0
10
1.400000
20
-0.150000
0
VERTEX
8
0
10
1.450000
20
-0.200000
0
VERTEX
8
0
10
1.500000
20
-0.100000
0
SEQEND
8
0
0
POLYLINE
8
0
66
1
40
0.016000
41
0.016000
0
VERTEX
8
0
10
1.300000
20
-0.450000
0
VERTEX
8
0
10
1.350000
20
-0.450000
0
VERTEX
8
0
10
1.350000
20
-0.150000
0
VERTEX
8
0
10
1.300000
20
-0.150000
0
VERTEX
8
0
10
1.300000
20
-0.450000
0
SEQEND
8
0
0
POLYLINE
8
0
66
1
40
0.016000
41
0.016000
0
VERTEX
8
0
10
1.350000
20
-0.350000
0
VERTEX
8
0
10
1.500000
20
-0.500000
0
SEQEND
8
0
0
POLYLINE
8
0
66
1
40
0.016000
41
0.016000
0
VERTEX
8
0
10
1.350000
20
-0.250000
0
VERTEX
8
0
10
1.420000
20
-0.180000
0
SEQEND
8
0
0
POLYLINE
8
0
66
1
40
0.016000
41
0.016000
0
VERTEX
8
0
10
1.200000
20
-0.300000
0
VERTEX
8
0
10
1.300000
20
-0.300000
0
SEQEND
8
0
0
POLYLINE
8
0
66
1
40
0.016000
41
0.016000
0
VERTEX
8
0
10
1.500000
20
-0.600000
0
VERTEX
8
0
10
1.500000
20
-0.500000
0
SEQEND
8
0
0
POLYLINE
8
0
66
1
40
0.016000
41
0.016000
0
VERTEX
8
0
10
1.500000
20
0.000000
0
VERTEX
8
0
10
1.500000
20
-0.100000
0
SEQEND
8
0
0
TEXT
8
0
10
1.558000
20
-0.227000
40
0.120000
41
0.666667
1
Q8
0
TEXT
8
0
10
1.558000
20
-0.332000
40
0.080000
41
1.000000
1
BC337
0
POLYLINE
8
0
66
1
40
0.016000
41
0.016000
0
VERTEX
8
0
10
1.900000
20
-0.700000
0
VERTEX
8
0
10
1.800000
20
-0.750000
0
VERTEX
8
0
10
1.850000
20
-0.800000
0
VERTEX
8
0
10
1.900000
20
-0.700000
0
SEQEND
8
0
0
POLYLINE
8
0
66
1
40
0.016000
41
0.016000
0
VERTEX
8
0
10
1.700000
20
-1.050000
0
VERTEX
8
0
10
1.750000
20
-1.050000
0
VERTEX
8
0
10
1.750000
20
-0.750000
0
VERTEX
8
0
10
1.700000
20
-0.750000
0
VERTEX
8
0
10
1.700000
20
-1.050000
0
SEQEND
8
0
0
POLYLINE
8
0
66
1
40
0.016000
41
0.016000
0
VERTEX
8
0
10
1.750000
20
-0.950000
0
VERTEX
8
0
10
1.900000
20
-1.100000
0
SEQEND
8
0
0
POLYLINE
8
0
66
1
40
0.016000
41
0.016000
0
VERTEX
8
0
10
1.750000
20
-0.850000
0
VERTEX
8
0
10
1.820000
20
-0.780000
0
SEQEND
8
0
0
POLYLINE
8
0
66
1
40
0.016000
41
0.016000
0
VERTEX
8
0
10
1.600000
20
-0.900000
0
VERTEX
8
0
10
1.700000
20
-0.900000
0
SEQEND
8
0
0
POLYLINE
8
0
66
1
40
0.016000
41
0.016000
0
VERTEX
8
0
10
1.900000
20
-1.200000
0
VERTEX
8
0
10
1.900000
20
-1.100000
0
SEQEND
8
0
0
POLYLINE
8
0
66
1
40
0.016000
41
0.016000
0
VERTEX
8
0
10
1.900000
20
-0.600000
0
VERTEX
8
0
10
1.900000
20
-0.700000
0
SEQEND
8
0
0
TEXT
8
0
10
1.958000
20
-0.827000
40
0.120000
41
0.666667
1
Q7
0
TEXT
8
0
10
1.958000
20
-0.932000
40
0.080000
41
1.000000
1
BC337
0
POLYLINE
8
0
66
1
40
0.016000
41
0.016000
0
VERTEX
8
0
10
2.300000
20
-1.500000
0
VERTEX
8
0
10
2.200000
20
-1.550000
0
VERTEX
8
0
10
2.250000
20
-1.600000
0
VERTEX
8
0
10
2.300000
20
-1.500000
0
SEQEND
8
0
0
POLYLINE
8
0
66
1
40
0.016000
41
0.016000
0
VERTEX
8
0
10
2.100000
20
-1.850000
0
VERTEX
8
0
10
2.150000
20
-1.850000
0
VERTEX
8
0
10
2.150000
20
-1.550000
0
VERTEX
8
0
10
2.100000
20
-1.550000
0
VERTEX
8
0
10
2.100000
20
-1.850000
0
SEQEND
8
0
0
POLYLINE
8
0
66
1
40
0.016000
41
0.016000
0
VERTEX
8
0
10
2.150000
20
-1.750000
0
VERTEX
8
0
10
2.300000
20
-1.900000
0
SEQEND
8
0
0
POLYLINE
8
0
66
1
40
0.016000
41
0.016000
0
VERTEX
8
0
10
2.150000
20
-1.650000
0
VERTEX
8
0
10
2.220000
20
-1.580000
0
SEQEND
8
0
0
POLYLINE
8
0
66
1
40
0.016000
41
0.016000
0
VERTEX
8
0
10
2.000000
20
-1.700000
0
VERTEX
8
0
10
2.100000
20
-1.700000
0
SEQEND
8
0
0
POLYLINE
8
0
66
1
40
0.016000
41
0.016000
0
VERTEX
8
0
10
2.300000
20
-2.000000
0
VERTEX
8
0
10
2.300000
20
-1.900000
0
SEQEND
8
0
0
POLYLINE
8
0
66
1
40
0.016000
41
0.016000
0
VERTEX
8
0
10
2.300000
20
-1.400000
0
VERTEX
8
0
10
2.300000
20
-1.500000
0
SEQEND
8
0
0
TEXT
8
0
10
2.358000
20
-1.627000
40
0.120000
41
0.666667
1
Q6
0
TEXT
8
0
10
2.358000
20
-1.732000
40
0.080000
41
1.000000
1
BC337
0
POLYLINE
8
0
66
1
40
0.016000
41
0.016000
0
VERTEX
8
0
10
2.800000
20
-2.100000
0
VERTEX
8
0
10
2.700000
20
-2.150000
0
VERTEX
8
0
10
2.750000
20
-2.200000
0
VERTEX
8
0
10
2.800000
20
-2.100000
0
SEQEND
8
0
0
POLYLINE
8
0
66
1
40
0.016000
41
0.016000
0
VERTEX
8
0
10
2.600000
20
-2.450000
0
VERTEX
8
0
10
2.650000
20
-2.450000
0
VERTEX
8
0
10
2.650000
20
-2.150000
0
VERTEX
8
0
10
2.600000
20
-2.150000
0
VERTEX
8
0
10
2.600000
20
-2.450000
0
SEQEND
8
0
0
POLYLINE
8
0
66
1
40
0.016000
41
0.016000
0
VERTEX
8
0
10
2.650000
20
-2.350000
0
VERTEX
8
0
10
2.800000
20
-2.500000
0
SEQEND
8
0
0
POLYLINE
8
0
66
1
40
0.016000
41
0.016000
0
VERTEX
8
0
10
2.650000
20
-2.250000
0
VERTEX
8
0
10
2.720000
20
-2.180000
0
SEQEND
8
0
0
POLYLINE
8
0
66
1
40
0.016000
41
0.016000
0
VERTEX
8
0
10
2.500000
20
-2.300000
0
VERTEX
8
0
10
2.600000
20
-2.300000
0
SEQEND
8
0
0
POLYLINE
8
0
66
1
40
0.016000
41
0.016000
0
VERTEX
8
0
10
2.800000
20
-2.600000
0
VERTEX
8
0
10
2.800000
20
-2.500000
0
SEQEND
8
0
0
POLYLINE
8
0
66
1
40
0.016000
41
0.016000
0
VERTEX
8
0
10
2.800000
20
-2.000000
0
VERTEX
8
0
10
2.800000
20
-2.100000
0
SEQEND
8
0
0
TEXT
8
0
10
2.858000
20
-2.227000
40
0.120000
41
0.666667
1
Q5
0
TEXT
8
0
10
2.858000
20
-2.332000
40
0.080000
41
1.000000
1
BC337
0
POLYLINE
8
0
66
1
40
0.016000
41
0.016000
0
VERTEX
8
0
10
3.550000
20
-0.300000
0
VERTEX
8
0
10
3.500000
20
-0.400000
0
VERTEX
8
0
10
3.450000
20
-0.300000
0
VERTEX
8
0
10
3.550000
20
-0.300000
0
SEQEND
8
0
0
POLYLINE
8
0
66
1
40
0.016000
41
0.016000
0
VERTEX
8
0
10
3.500000
20
-0.200000
0
VERTEX
8
0
10
3.500000
20
-0.400000
0
SEQEND
8
0
0
POLYLINE
8
0
66
1
40
0.016000
41
0.016000
0
VERTEX
8
0
10
3.950000
20
-1.200000
0
VERTEX
8
0
10
3.900000
20
-1.300000
0
VERTEX
8
0
10
3.850000
20
-1.200000
0
VERTEX
8
0
10
3.950000
20
-1.200000
0
SEQEND
8
0
0
POLYLINE
8
0
66
1
40
0.016000
41
0.016000
0
VERTEX
8
0
10
3.900000
20
-1.100000
0
VERTEX
8
0
10
3.900000
20
-1.300000
0
SEQEND
8
0
0
POLYLINE
8
0
66
1
40
0.016000
41
0.016000
0
VERTEX
8
0
10
4.150000
20
-2.100000
0
VERTEX
8
0
10
4.200000
20
-2.200000
0
VERTEX
8
0
10
4.250000
20
-2.100000
0
VERTEX
8
0
10
4.150000
20
-2.100000
0
SEQEND
8
0
0
POLYLINE
8
0
66
1
40
0.016000
41
0.016000
0
VERTEX
8
0
10
4.200000
20
-2.000000
0
VERTEX
8
0
10
4.200000
20
-2.200000
0
SEQEND
8
0
0
POLYLINE
8
0
66
1
40
0.016000
41
0.016000
0
VERTEX
8
0
10
4.650000
20
-2.800000
0
VERTEX
8
0
10
4.600000
20
-2.900000
0
VERTEX
8
0
10
4.550000
20
-2.800000
0
VERTEX
8
0
10
4.650000
20
-2.800000
0
SEQEND
8
0
0
POLYLINE
8
0
66
1
40
0.016000
41
0.016000
0
VERTEX
8
0
10
4.600000
20
-2.700000
0
VERTEX
8
0
10
4.600000
20
-2.900000
0
SEQEND
8
0
0
POLYLINE
8
0
66
1
40
0.016000
41
0.016000
0
VERTEX
8
0
10
3.500000
20
0.400000
0
VERTEX
8
0
10
3.400000
20
0.350000
0
VERTEX
8
0
10
3.450000
20
0.300000
0
VERTEX
8
0
10
3.500000
20
0.400000
0
SEQEND
8
0
0
POLYLINE
8
0
66
1
40
0.016000
41
0.016000
0
VERTEX
8
0
10
3.300000
20
0.050000
0
VERTEX
8
0
10
3.350000
20
0.050000
0
VERTEX
8
0
10
3.350000
20
0.350000
0
VERTEX
8
0
10
3.300000
20
0.350000
0
VERTEX
8
0
10
3.300000
20
0.050000
0
SEQEND
8
0
0
POLYLINE
8
0
66
1
40
0.016000
41
0.016000
0
VERTEX
8
0
10
3.350000
20
0.150000
0
VERTEX
8
0
10
3.500000
20
0.000000
0
SEQEND
8
0
0
POLYLINE
8
0
66
1
40
0.016000
41
0.016000
0
VERTEX
8
0
10
3.350000
20
0.250000
0
VERTEX
8
0
10
3.420000
20
0.320000
0
SEQEND
8
0
0
POLYLINE
8
0
66
1
40
0.016000
41
0.016000
0
VERTEX
8
0
10
3.200000
20
0.200000
0
VERTEX
8
0
10
3.300000
20
0.200000
0
SEQEND
8
0
0
POLYLINE
8
0
66
1
40
0.016000
41
0.016000
0
VERTEX
8
0
10
3.500000
20
-0.100000
0
VERTEX
8
0
10
3.500000
20
0.000000
0
SEQEND
8
0
0
POLYLINE
8
0
66
1
40
0.016000
41
0.016000
0
VERTEX
8
0
10
3.500000
20
0.500000
0
VERTEX
8
0
10
3.500000
20
0.400000
0
SEQEND
8
0
0
TEXT
8
0
10
3.558000
20
0.273000
40
0.120000
41
0.666667
1
Q4
0
TEXT
8
0
10
3.558000
20
0.168000
40
0.080000
41
1.000000
1
BC337
0
POLYLINE
8
0
66
1
40
0.016000
41
0.016000
0
VERTEX
8
0
10
3.900000
20
-0.500000
0
VERTEX
8
0
10
3.800000
20
-0.550000
0
VERTEX
8
0
10
3.850000
20
-0.600000
0
VERTEX
8
0
10
3.900000
20
-0.500000
0
SEQEND
8
0
0
POLYLINE
8
0
66
1
40
0.016000
41
0.016000
0
VERTEX
8
0
10
3.700000
20
-0.850000
0
VERTEX
8
0
10
3.750000
20
-0.850000
0
VERTEX
8
0
10
3.750000
20
-0.550000
0
VERTEX
8
0
10
3.700000
20
-0.550000
0
VERTEX
8
0
10
3.700000
20
-0.850000
0
SEQEND
8
0
0
POLYLINE
8
0
66
1
40
0.016000
41
0.016000
0
VERTEX
8
0
10
3.750000
20
-0.750000
0
VERTEX
8
0
10
3.900000
20
-0.900000
0
SEQEND
8
0
0
POLYLINE
8
0
66
1
40
0.016000
41
0.016000
0
VERTEX
8
0
10
3.750000
20
-0.650000
0
VERTEX
8
0
10
3.820000
20
-0.580000
0
SEQEND
8
0
0
POLYLINE
8
0
66
1
40
0.016000
41
0.016000
0
VERTEX
8
0
10
3.600000
20
-0.700000
0
VERTEX
8
0
10
3.700000
20
-0.700000
0
SEQEND
8
0
0
POLYLINE
8
0
66
1
40
0.016000
41
0.016000
0
VERTEX
8
0
10
3.900000
20
-1.000000
0
VERTEX
8
0
10
3.900000
20
-0.900000
0
SEQEND
8
0
0
POLYLINE
8
0
66
1
40
0.016000
41
0.016000
0
VERTEX
8
0
10
3.900000
20
-0.400000
0
VERTEX
8
0
10
3.900000
20
-0.500000
0
SEQEND
8
0
0
TEXT
8
0
10
3.958000
20
-0.627000
40
0.120000
41
0.666667
1
Q3
0
TEXT
8
0
10
3.958000
20
-0.732000
40
0.080000
41
1.000000
1
BC337
0
POLYLINE
8
0
66
1
40
0.016000
41
0.016000
0
VERTEX
8
0
10
4.200000
20
-1.400000
0
VERTEX
8
0
10
4.100000
20
-1.450000
0
VERTEX
8
0
10
4.150000
20
-1.500000
0
VERTEX
8
0
10
4.200000
20
-1.400000
0
SEQEND
8
0
0
POLYLINE
8
0
66
1
40
0.016000
41
0.016000
0
VERTEX
8
0
10
4.000000
20
-1.750000
0
VERTEX
8
0
10
4.050000
20
-1.750000
0
VERTEX
8
0
10
4.050000
20
-1.450000
0
VERTEX
8
0
10
4.000000
20
-1.450000
0
VERTEX
8
0
10
4.000000
20
-1.750000
0
SEQEND
8
0
0
POLYLINE
8
0
66
1
40
0.016000
41
0.016000
0
VERTEX
8
0
10
4.050000
20
-1.650000
0
VERTEX
8
0
10
4.200000
20
-1.800000
0
SEQEND
8
0
0
POLYLINE
8
0
66
1
40
0.016000
41
0.016000
0
VERTEX
8
0
10
4.050000
20
-1.550000
0
VERTEX
8
0
10
4.120000
20
-1.480000
0
SEQEND
8
0
0
POLYLINE
8
0
66
1
40
0.016000
41
0.016000
0
VERTEX
8
0
10
3.900000
20
-1.600000
0
VERTEX
8
0
10
4.000000
20
-1.600000
0
SEQEND
8
0
0
POLYLINE
8
0
66
1
40
0.016000
41
0.016000
0
VERTEX
8
0
10
4.200000
20
-1.900000
0
VERTEX
8
0
10
4.200000
20
-1.800000
0
SEQEND
8
0
0
POLYLINE
8
0
66
1
40
0.016000
41
0.016000
0
VERTEX
8
0
10
4.200000
20
-1.300000
0
VERTEX
8
0
10
4.200000
20
-1.400000
0
SEQEND
8
0
0
TEXT
8
0
10
4.258000
20
-1.527000
40
0.120000
41
0.666667
1
Q2
0
TEXT
8
0
10
4.258000
20
-1.632000
40
0.080000
41
1.000000
1
BC337
0
POLYLINE
8
0
66
1
40
0.016000
41
0.016000
0
VERTEX
8
0
10
4.600000
20
-2.100000
0
VERTEX
8
0
10
4.500000
20
-2.150000
0
VERTEX
8
0
10
4.550000
20
-2.200000
0
VERTEX
8
0
10
4.600000
20
-2.100000
0
SEQEND
8
0
0
POLYLINE
8
0
66
1
40
0.016000
41
0.016000
0
VERTEX
8
0
10
4.400000
20
-2.450000
0
VERTEX
8
0
10
4.450000
20
-2.450000
0
VERTEX
8
0
10
4.450000
20
-2.150000
0
VERTEX
8
0
10
4.400000
20
-2.150000
0
VERTEX
8
0
10
4.400000
20
-2.450000
0
SEQEND
8
0
0
POLYLINE
8
0
66
1
40
0.016000
41
0.016000
0
VERTEX
8
0
10
4.450000
20
-2.350000
0
VERTEX
8
0
10
4.600000
20
-2.500000
0
SEQEND
8
0
0
POLYLINE
8
0
66
1
40
0.016000
41
0.016000
0
VERTEX
8
0
10
4.450000
20
-2.250000
0
VERTEX
8
0
10
4.520000
20
-2.180000
0
SEQEND
8
0
0
POLYLINE
8
0
66
1
40
0.016000
41
0.016000
0
VERTEX
8
0
10
4.300000
20
-2.300000
0
VERTEX
8
0
10
4.400000
20
-2.300000
0
SEQEND
8
0
0
POLYLINE
8
0
66
1
40
0.016000
41
0.016000
0
VERTEX
8
0
10
4.600000
20
-2.600000
0
VERTEX
8
0
10
4.600000
20
-2.500000
0
SEQEND
8
0
0
POLYLINE
8
0
66
1
40
0.016000
41
0.016000
0
VERTEX
8
0
10
4.600000
20
-2.000000
0
VERTEX
8
0
10
4.600000
20
-2.100000
0
SEQEND
8
0
0
TEXT
8
0
10
4.658000
20
-2.227000
40
0.120000
41
0.666667
1
Q1
0
TEXT
8
0
10
4.658000
20
-2.332000
40
0.080000
41
1.000000
1
BC337
0
POLYLINE
8
0
66
1
40
0.016000
41
0.016000
0
VERTEX
8
0
10
2.900000
20
0.240000
0
VERTEX
8
0
10
2.900000
20
0.160000
0
VERTEX
8
0
10
3.000000
20
0.200000
0
VERTEX
8
0
10
2.900000
20
0.240000
0
SEQEND
8
0
0
POLYLINE
8
0
66
1
40
0.016000
41
0.016000
0
VERTEX
8
0
10
3.000000
20
0.200000
0
VERTEX
8
0
10
3.100000
20
0.200000
0
SEQEND
8
0
0
TEXT
8
0
10
2.530000
20
0.160000
40
0.080000
41
1.000000
1
dsp4
0
POLYLINE
8
0
66
1
40
0.016000
41
0.016000
0
VERTEX
8
0
10
-1.100000
20
0.860000
0
VERTEX
8
0
10
-1.100000
20
0.940000
0
VERTEX
8
0
10
-1.200000
20
0.900000
0
VERTEX
8
0
10
-1.100000
20
0.860000
0
SEQEND
8
0
0
POLYLINE
8
0
66
1
40
0.016000
41
0.016000
0
VERTEX
8
0
10
-1.200000
20
0.900000
0
VERTEX
8
0
10
-1.300000
20
0.900000
0
SEQEND
8
0
0
TEXT
8
0
10
-1.050000
20
0.860000
40
0.080000
41
1.000000
1
dsp1
0
POLYLINE
8
0
66
1
40
0.016000
41
0.016000
0
VERTEX
8
0
10
-1.100000
20
0.760000
0
VERTEX
8
0
10
-1.100000
20
0.840000
0
VERTEX
8
0
10
-1.200000
20
0.800000
0
VERTEX
8
0
10
-1.100000
20
0.760000
0
SEQEND
8
0
0
POLYLINE
8
0
66
1
40
0.016000
41
0.016000
0
VERTEX
8
0
10
-1.200000
20
0.800000
0
VERTEX
8
0
10
-1.300000
20
0.800000
0
SEQEND
8
0
0
TEXT
8
0
10
-1.050000
20
0.760000
40
0.080000
41
1.000000
1
dsp2
0
POLYLINE
8
0
66
1
40
0.016000
41
0.016000
0
VERTEX
8
0
10
3.400000
20
-0.660000
0
VERTEX
8
0
10
3.400000
20
-0.740000
0
VERTEX
8
0
10
3.500000
20
-0.700000
0
VERTEX
8
0
10
3.400000
20
-0.660000
0
SEQEND
8
0
0
POLYLINE
8
0
66
1
40
0.016000
41
0.016000
0
VERTEX
8
0
10
3.500000
20
-0.700000
0
VERTEX
8
0
10
3.600000
20
-0.700000
0
SEQEND
8
0
0
TEXT
8
0
10
3.030000
20
-0.740000
40
0.080000
41
1.000000
1
dsp3
0
POLYLINE
8
0
66
1
40
0.016000
41
0.016000
0
VERTEX
8
0
10
-1.100000
20
0.660000
0
VERTEX
8
0
10
-1.100000
20
0.740000
0
VERTEX
8
0
10
-1.200000
20
0.700000
0
VERTEX
8
0
10
-1.100000
20
0.660000
0
SEQEND
8
0
0
POLYLINE
8
0
66
1
40
0.016000
41
0.016000
0
VERTEX
8
0
10
-1.200000
20
0.700000
0
VERTEX
8
0
10
-1.300000
20
0.700000
0
SEQEND
8
0
0
TEXT
8
0
10
-1.050000
20
0.660000
40
0.080000
41
1.000000
1
dsp3
0
POLYLINE
8
0
66
1
40
0.016000
41
0.016000
0
VERTEX
8
0
10
-1.100000
20
0.560000
0
VERTEX
8
0
10
-1.100000
20
0.640000
0
VERTEX
8
0
10
-1.200000
20
0.600000
0
VERTEX
8
0
10
-1.100000
20
0.560000
0
SEQEND
8
0
0
POLYLINE
8
0
66
1
40
0.016000
41
0.016000
0
VERTEX
8
0
10
-1.200000
20
0.600000
0
VERTEX
8
0
10
-1.300000
20
0.600000
0
SEQEND
8
0
0
TEXT
8
0
10
-1.050000
20
0.560000
40
0.080000
41
1.000000
1
dsp4
0
POLYLINE
8
0
66
1
40
0.016000
41
0.016000
0
VERTEX
8
0
10
4.000000
20
-2.260000
0
VERTEX
8
0
10
4.000000
20
-2.340000
0
VERTEX
8
0
10
4.100000
20
-2.300000
0
VERTEX
8
0
10
4.000000
20
-2.260000
0
SEQEND
8
0
0
POLYLINE
8
0
66
1
40
0.016000
41
0.016000
0
VERTEX
8
0
10
4.100000
20
-2.300000
0
VERTEX
8
0
10
4.200000
20
-2.300000
0
SEQEND
8
0
0
TEXT
8
0
10
3.630000
20
-2.340000
40
0.080000
41
1.000000
1
dsp1
0
POLYLINE
8
0
66
1
40
0.016000
41
0.016000
0
VERTEX
8
0
10
3.600000
20
-1.560000
0
VERTEX
8
0
10
3.600000
20
-1.640000
0
VERTEX
8
0
10
3.700000
20
-1.600000
0
VERTEX
8
0
10
3.600000
20
-1.560000
0
SEQEND
8
0
0
POLYLINE
8
0
66
1
40
0.016000
41
0.016000
0
VERTEX
8
0
10
3.700000
20
-1.600000
0
VERTEX
8
0
10
3.800000
20
-1.600000
0
SEQEND
8
0
0
TEXT
8
0
10
3.230000
20
-1.640000
40
0.080000
41
1.000000
1
dsp2
0
POLYLINE
8
0
66
1
40
0.016000
41
0.016000
0
VERTEX
8
0
10
-0.900000
20
0.540000
0
VERTEX
8
0
10
-0.900000
20
0.460000
0
VERTEX
8
0
10
-1.000000
20
0.500000
0
VERTEX
8
0
10
-0.900000
20
0.540000
0
SEQEND
8
0
0
POLYLINE
8
0
66
1
40
0.016000
41
0.016000
0
VERTEX
8
0
10
-1.000000
20
0.500000
0
VERTEX
8
0
10
-1.100000
20
0.500000
0
SEQEND
8
0
0
TEXT
8
0
10
-0.850000
20
0.460000
40
0.080000
41
1.000000
1
dsp5
0
POLYLINE
8
0
66
1
40
0.016000
41
0.016000
0
VERTEX
8
0
10
-0.900000
20
0.440000
0
VERTEX
8
0
10
-0.900000
20
0.360000
0
VERTEX
8
0
10
-1.000000
20
0.400000
0
VERTEX
8
0
10
-0.900000
20
0.440000
0
SEQEND
8
0
0
POLYLINE
8
0
66
1
40
0.016000
41
0.016000
0
VERTEX
8
0
10
-1.000000
20
0.400000
0
VERTEX
8
0
10
-1.100000
20
0.400000
0
SEQEND
8
0
0
TEXT
8
0
10
-0.850000
20
0.360000
40
0.080000
41
1.000000
1
dsp6
0
POLYLINE
8
0
66
1
40
0.016000
41
0.016000
0
VERTEX
8
0
10
-0.900000
20
0.340000
0
VERTEX
8
0
10
-0.900000
20
0.260000
0
VERTEX
8
0
10
-1.000000
20
0.300000
0
VERTEX
8
0
10
-0.900000
20
0.340000
0
SEQEND
8
0
0
POLYLINE
8
0
66
1
40
0.016000
41
0.016000
0
VERTEX
8
0
10
-1.000000
20
0.300000
0
VERTEX
8
0
10
-1.100000
20
0.300000
0
SEQEND
8
0
0
TEXT
8
0
10
-0.850000
20
0.260000
40
0.080000
41
1.000000
1
dsp7
0
POLYLINE
8
0
66
1
40
0.016000
41
0.016000
0
VERTEX
8
0
10
-0.900000
20
0.240000
0
VERTEX
8
0
10
-0.900000
20
0.160000
0
VERTEX
8
0
10
-1.000000
20
0.200000
0
VERTEX
8
0
10
-0.900000
20
0.240000
0
SEQEND
8
0
0
POLYLINE
8
0
66
1
40
0.016000
41
0.016000
0
VERTEX
8
0
10
-1.000000
20
0.200000
0
VERTEX
8
0
10
-1.100000
20
0.200000
0
SEQEND
8
0
0
TEXT
8
0
10
-0.850000
20
0.160000
40
0.080000
41
1.000000
1
dsp8
0
POLYLINE
8
0
66
1
40
0.016000
41
0.016000
0
VERTEX
8
0
10
2.200000
20
-2.260000
0
VERTEX
8
0
10
2.200000
20
-2.340000
0
VERTEX
8
0
10
2.300000
20
-2.300000
0
VERTEX
8
0
10
2.200000
20
-2.260000
0
SEQEND
8
0
0
POLYLINE
8
0
66
1
40
0.016000
41
0.016000
0
VERTEX
8
0
10
2.300000
20
-2.300000
0
VERTEX
8
0
10
2.400000
20
-2.300000
0
SEQEND
8
0
0
TEXT
8
0
10
1.830000
20
-2.340000
40
0.080000
41
1.000000
1
dsp5
0
POLYLINE
8
0
66
1
40
0.016000
41
0.016000
0
VERTEX
8
0
10
1.700000
20
-1.660000
0
VERTEX
8
0
10
1.700000
20
-1.740000
0
VERTEX
8
0
10
1.800000
20
-1.700000
0
VERTEX
8
0
10
1.700000
20
-1.660000
0
SEQEND
8
0
0
POLYLINE
8
0
66
1
40
0.016000
41
0.016000
0
VERTEX
8
0
10
1.800000
20
-1.700000
0
VERTEX
8
0
10
1.900000
20
-1.700000
0
SEQEND
8
0
0
TEXT
8
0
10
1.330000
20
-1.740000
40
0.080000
41
1.000000
1
dsp6
0
POLYLINE
8
0
66
1
40
0.016000
41
0.016000
0
VERTEX
8
0
10
1.300000
20
-0.860000
0
VERTEX
8
0
10
1.300000
20
-0.940000
0
VERTEX
8
0
10
1.400000
20
-0.900000
0
VERTEX
8
0
10
1.300000
20
-0.860000
0
SEQEND
8
0
0
POLYLINE
8
0
66
1
40
0.016000
41
0.016000
0
VERTEX
8
0
10
1.400000
20
-0.900000
0
VERTEX
8
0
10
1.500000
20
-0.900000
0
SEQEND
8
0
0
TEXT
8
0
10
0.930000
20
-0.940000
40
0.080000
41
1.000000
1
dsp7
0
POLYLINE
8
0
66
1
40
0.016000
41
0.016000
0
VERTEX
8
0
10
0.900000
20
-0.260000
0
VERTEX
8
0
10
0.900000
20
-0.340000
0
VERTEX
8
0
10
1.000000
20
-0.300000
0
VERTEX
8
0
10
0.900000
20
-0.260000
0
SEQEND
8
0
0
POLYLINE
8
0
66
1
40
0.016000
41
0.016000
0
VERTEX
8
0
10
1.000000
20
-0.300000
0
VERTEX
8
0
10
1.100000
20
-0.300000
0
SEQEND
8
0
0
TEXT
8
0
10
0.530000
20
-0.340000
40
0.080000
41
1.000000
1
dsp8
0
POLYLINE
8
0
66
1
40
0.016000
41
0.016000
0
VERTEX
8
0
10
-1.100000
20
1.760000
0
VERTEX
8
0
10
-1.100000
20
1.840000
0
VERTEX
8
0
10
-1.200000
20
1.800000
0
VERTEX
8
0
10
-1.100000
20
1.760000
0
SEQEND
8
0
0
POLYLINE
8
0
66
1
40
0.016000
41
0.016000
0
VERTEX
8
0
10
-1.200000
20
1.800000
0
VERTEX
8
0
10
-1.300000
20
1.800000
0
SEQEND
8
0
0
TEXT
8
0
10
-1.050000
20
1.760000
40
0.080000
41
1.000000
1
a
0
POLYLINE
8
0
66
1
40
0.016000
41
0.016000
0
VERTEX
8
0
10
-1.100000
20
1.660000
0
VERTEX
8
0
10
-1.100000
20
1.740000
0
VERTEX
8
0
10
-1.200000
20
1.700000
0
VERTEX
8
0
10
-1.100000
20
1.660000
0
SEQEND
8
0
0
POLYLINE
8
0
66
1
40
0.016000
41
0.016000
0
VERTEX
8
0
10
-1.200000
20
1.700000
0
VERTEX
8
0
10
-1.300000
20
1.700000
0
SEQEND
8
0
0
TEXT
8
0
10
-1.050000
20
1.660000
40
0.080000
41
1.000000
1
b
0
POLYLINE
8
0
66
1
40
0.016000
41
0.016000
0
VERTEX
8
0
10
-1.100000
20
1.560000
0
VERTEX
8
0
10
-1.100000
20
1.640000
0
VERTEX
8
0
10
-1.200000
20
1.600000
0
VERTEX
8
0
10
-1.100000
20
1.560000
0
SEQEND
8
0
0
POLYLINE
8
0
66
1
40
0.016000
41
0.016000
0
VERTEX
8
0
10
-1.200000
20
1.600000
0
VERTEX
8
0
10
-1.300000
20
1.600000
0
SEQEND
8
0
0
TEXT
8
0
10
-1.050000
20
1.560000
40
0.080000
41
1.000000
1
c
0
POLYLINE
8
0
66
1
40
0.016000
41
0.016000
0
VERTEX
8
0
10
-1.100000
20
1.460000
0
VERTEX
8
0
10
-1.100000
20
1.540000
0
VERTEX
8
0
10
-1.200000
20
1.500000
0
VERTEX
8
0
10
-1.100000
20
1.460000
0
SEQEND
8
0
0
POLYLINE
8
0
66
1
40
0.016000
41
0.016000
0
VERTEX
8
0
10
-1.200000
20
1.500000
0
VERTEX
8
0
10
-1.300000
20
1.500000
0
SEQEND
8
0
0
TEXT
8
0
10
-1.050000
20
1.460000
40
0.080000
41
1.000000
1
d
0
POLYLINE
8
0
66
1
40
0.016000
41
0.016000
0
VERTEX
8
0
10
-1.100000
20
1.360000
0
VERTEX
8
0
10
-1.100000
20
1.440000
0
VERTEX
8
0
10
-1.200000
20
1.400000
0
VERTEX
8
0
10
-1.100000
20
1.360000
0
SEQEND
8
0
0
POLYLINE
8
0
66
1
40
0.016000
41
0.016000
0
VERTEX
8
0
10
-1.200000
20
1.400000
0
VERTEX
8
0
10
-1.300000
20
1.400000
0
SEQEND
8
0
0
TEXT
8
0
10
-1.050000
20
1.360000
40
0.080000
41
1.000000
1
e
0
POLYLINE
8
0
66
1
40
0.016000
41
0.016000
0
VERTEX
8
0
10
-1.100000
20
1.260000
0
VERTEX
8
0
10
-1.100000
20
1.340000
0
VERTEX
8
0
10
-1.200000
20
1.300000
0
VERTEX
8
0
10
-1.100000
20
1.260000
0
SEQEND
8
0
0
POLYLINE
8
0
66
1
40
0.016000
41
0.016000
0
VERTEX
8
0
10
-1.200000
20
1.300000
0
VERTEX
8
0
10
-1.300000
20
1.300000
0
SEQEND
8
0
0
TEXT
8
0
10
-1.050000
20
1.260000
40
0.080000
41
1.000000
1
f
0
POLYLINE
8
0
66
1
40
0.016000
41
0.016000
0
VERTEX
8
0
10
-1.100000
20
1.160000
0
VERTEX
8
0
10
-1.100000
20
1.240000
0
VERTEX
8
0
10
-1.200000
20
1.200000
0
VERTEX
8
0
10
-1.100000
20
1.160000
0
SEQEND
8
0
0
POLYLINE
8
0
66
1
40
0.016000
41
0.016000
0
VERTEX
8
0
10
-1.200000
20
1.200000
0
VERTEX
8
0
10
-1.300000
20
1.200000
0
SEQEND
8
0
0
TEXT
8
0
10
-1.050000
20
1.160000
40
0.080000
41
1.000000
1
g
0
POLYLINE
8
0
66
1
40
0.016000
41
0.016000
0
VERTEX
8
0
10
-1.100000
20
1.060000
0
VERTEX
8
0
10
-1.100000
20
1.140000
0
VERTEX
8
0
10
-1.200000
20
1.100000
0
VERTEX
8
0
10
-1.100000
20
1.060000
0
SEQEND
8
0
0
POLYLINE
8
0
66
1
40
0.016000
41
0.016000
0
VERTEX
8
0
10
-1.200000
20
1.100000
0
VERTEX
8
0
10
-1.300000
20
1.100000
0
SEQEND
8
0
0
TEXT
8
0
10
-1.050000
20
1.060000
40
0.080000
41
1.000000
1
pisca
0
POLYLINE
8
0
66
1
40
0.016000
41
0.016000
0
VERTEX
8
0
10
-0.840000
20
1.800000
0
VERTEX
8
0
10
-0.760000
20
1.800000
0
VERTEX
8
0
10
-0.800000
20
1.900000
0
VERTEX
8
0
10
-0.840000
20
1.800000
0
SEQEND
8
0
0
POLYLINE
8
0
66
1
40
0.016000
41
0.016000
0
VERTEX
8
0
10
-0.800000
20
1.900000
0
VERTEX
8
0
10
-0.800000
20
2.000000
0
SEQEND
8
0
0
TEXT
8
0
10
-0.760000
20
1.670000
40
0.080000
41
1.000000
50
90.000000
1
a
0
POLYLINE
8
0
66
1
40
0.016000
41
0.016000
0
VERTEX
8
0
10
-0.140000
20
1.800000
0
VERTEX
8
0
10
-0.060000
20
1.800000
0
VERTEX
8
0
10
-0.100000
20
1.900000
0
VERTEX
8
0
10
-0.140000
20
1.800000
0
SEQEND
8
0
0
POLYLINE
8
0
66
1
40
0.016000
41
0.016000
0
VERTEX
8
0
10
-0.100000
20
1.900000
0
VERTEX
8
0
10
-0.100000
20
2.000000
0
SEQEND
8
0
0
TEXT
8
0
10
-0.060000
20
1.350000
40
0.080000
41
1.000000
50
90.000000
1
Pisca
0
POLYLINE
8
0
66
1
40
0.016000
41
0.016000
0
VERTEX
8
0
10
-0.240000
20
1.800000
0
VERTEX
8
0
10
-0.160000
20
1.800000
0
VERTEX
8
0
10
-0.200000
20
1.900000
0
VERTEX
8
0
10
-0.240000
20
1.800000
0
SEQEND
8
0
0
POLYLINE
8
0
66
1
40
0.016000
41
0.016000
0
VERTEX
8
0
10
-0.200000
20
1.900000
0
VERTEX
8
0
10
-0.200000
20
2.000000
0
SEQEND
8
0
0
TEXT
8
0
10
-0.160000
20
1.670000
40
0.080000
41
1.000000
50
90.000000
1
g
0
POLYLINE
8
0
66
1
40
0.016000
41
0.016000
0
VERTEX
8
0
10
-0.340000
20
1.800000
0
VERTEX
8
0
10
-0.260000
20
1.800000
0
VERTEX
8
0
10
-0.300000
20
1.900000
0
VERTEX
8
0
10
-0.340000
20
1.800000
0
SEQEND
8
0
0
POLYLINE
8
0
66
1
40
0.016000
41
0.016000
0
VERTEX
8
0
10
-0.300000
20
1.900000
0
VERTEX
8
0
10
-0.300000
20
2.000000
0
SEQEND
8
0
0
TEXT
8
0
10
-0.260000
20
1.670000
40
0.080000
41
1.000000
50
90.000000
1
f
0
POLYLINE
8
0
66
1
40
0.016000
41
0.016000
0
VERTEX
8
0
10
-0.440000
20
1.800000
0
VERTEX
8
0
10
-0.360000
20
1.800000
0
VERTEX
8
0
10
-0.400000
20
1.900000
0
VERTEX
8
0
10
-0.440000
20
1.800000
0
SEQEND
8
0
0
POLYLINE
8
0
66
1
40
0.016000
41
0.016000
0
VERTEX
8
0
10
-0.400000
20
1.900000
0
VERTEX
8
0
10
-0.400000
20
2.000000
0
SEQEND
8
0
0
TEXT
8
0
10
-0.360000
20
1.670000
40
0.080000
41
1.000000
50
90.000000
1
e
0
POLYLINE
8
0
66
1
40
0.016000
41
0.016000
0
VERTEX
8
0
10
-0.540000
20
1.800000
0
VERTEX
8
0
10
-0.460000
20
1.800000
0
VERTEX
8
0
10
-0.500000
20
1.900000
0
VERTEX
8
0
10
-0.540000
20
1.800000
0
SEQEND
8
0
0
POLYLINE
8
0
66
1
40
0.016000
41
0.016000
0
VERTEX
8
0
10
-0.500000
20
1.900000
0
VERTEX
8
0
10
-0.500000
20
2.000000
0
SEQEND
8
0
0
TEXT
8
0
10
-0.460000
20
1.670000
40
0.080000
41
1.000000
50
90.000000
1
d
0
POLYLINE
8
0
66
1
40
0.016000
41
0.016000
0
VERTEX
8
0
10
-0.640000
20
1.800000
0
VERTEX
8
0
10
-0.560000
20
1.800000
0
VERTEX
8
0
10
-0.600000
20
1.900000
0
VERTEX
8
0
10
-0.640000
20
1.800000
0
SEQEND
8
0
0
POLYLINE
8
0
66
1
40
0.016000
41
0.016000
0
VERTEX
8
0
10
-0.600000
20
1.900000
0
VERTEX
8
0
10
-0.600000
20
2.000000
0
SEQEND
8
0
0
TEXT
8
0
10
-0.560000
20
1.670000
40
0.080000
41
1.000000
50
90.000000
1
c
0
POLYLINE
8
0
66
1
40
0.016000
41
0.016000
0
VERTEX
8
0
10
-0.740000
20
1.800000
0
VERTEX
8
0
10
-0.660000
20
1.800000
0
VERTEX
8
0
10
-0.700000
20
1.900000
0
VERTEX
8
0
10
-0.740000
20
1.800000
0
SEQEND
8
0
0
POLYLINE
8
0
66
1
40
0.016000
41
0.016000
0
VERTEX
8
0
10
-0.700000
20
1.900000
0
VERTEX
8
0
10
-0.700000
20
2.000000
0
SEQEND
8
0
0
TEXT
8
0
10
-0.660000
20
1.670000
40
0.080000
41
1.000000
50
90.000000
1
b
0
POLYLINE
8
0
66
1
40
0.016000
41
0.016000
0
VERTEX
8
0
10
1.960000
20
1.800000
0
VERTEX
8
0
10
2.040000
20
1.800000
0
VERTEX
8
0
10
2.000000
20
1.900000
0
VERTEX
8
0
10
1.960000
20
1.800000
0
SEQEND
8
0
0
POLYLINE
8
0
66
1
40
0.016000
41
0.016000
0
VERTEX
8
0
10
2.000000
20
1.900000
0
VERTEX
8
0
10
2.000000
20
2.000000
0
SEQEND
8
0
0
TEXT
8
0
10
2.040000
20
1.670000
40
0.080000
41
1.000000
50
90.000000
1
a
0
POLYLINE
8
0
66
1
40
0.016000
41
0.016000
0
VERTEX
8
0
10
2.660000
20
1.800000
0
VERTEX
8
0
10
2.740000
20
1.800000
0
VERTEX
8
0
10
2.700000
20
1.900000
0
VERTEX
8
0
10
2.660000
20
1.800000
0
SEQEND
8
0
0
POLYLINE
8
0
66
1
40
0.016000
41
0.016000
0
VERTEX
8
0
10
2.700000
20
1.900000
0
VERTEX
8
0
10
2.700000
20
2.000000
0
SEQEND
8
0
0
TEXT
8
0
10
2.740000
20
1.350000
40
0.080000
41
1.000000
50
90.000000
1
Pisca
0
POLYLINE
8
0
66
1
40
0.016000
41
0.016000
0
VERTEX
8
0
10
2.560000
20
1.800000
0
VERTEX
8
0
10
2.640000
20
1.800000
0
VERTEX
8
0
10
2.600000
20
1.900000
0
VERTEX
8
0
10
2.560000
20
1.800000
0
SEQEND
8
0
0
POLYLINE
8
0
66
1
40
0.016000
41
0.016000
0
VERTEX
8
0
10
2.600000
20
1.900000
0
VERTEX
8
0
10
2.600000
20
2.000000
0
SEQEND
8
0
0
TEXT
8
0
10
2.640000
20
1.670000
40
0.080000
41
1.000000
50
90.000000
1
g
0
POLYLINE
8
0
66
1
40
0.016000
41
0.016000
0
VERTEX
8
0
10
2.460000
20
1.800000
0
VERTEX
8
0
10
2.540000
20
1.800000
0
VERTEX
8
0
10
2.500000
20
1.900000
0
VERTEX
8
0
10
2.460000
20
1.800000
0
SEQEND
8
0
0
POLYLINE
8
0
66
1
40
0.016000
41
0.016000
0
VERTEX
8
0
10
2.500000
20
1.900000
0
VERTEX
8
0
10
2.500000
20
2.000000
0
SEQEND
8
0
0
TEXT
8
0
10
2.540000
20
1.670000
40
0.080000
41
1.000000
50
90.000000
1
f
0
POLYLINE
8
0
66
1
40
0.016000
41
0.016000
0
VERTEX
8
0
10
2.360000
20
1.800000
0
VERTEX
8
0
10
2.440000
20
1.800000
0
VERTEX
8
0
10
2.400000
20
1.900000
0
VERTEX
8
0
10
2.360000
20
1.800000
0
SEQEND
8
0
0
POLYLINE
8
0
66
1
40
0.016000
41
0.016000
0
VERTEX
8
0
10
2.400000
20
1.900000
0
VERTEX
8
0
10
2.400000
20
2.000000
0
SEQEND
8
0
0
TEXT
8
0
10
2.440000
20
1.670000
40
0.080000
41
1.000000
50
90.000000
1
e
0
POLYLINE
8
0
66
1
40
0.016000
41
0.016000
0
VERTEX
8
0
10
2.260000
20
1.800000
0
VERTEX
8
0
10
2.340000
20
1.800000
0
VERTEX
8
0
10
2.300000
20
1.900000
0
VERTEX
8
0
10
2.260000
20
1.800000
0
SEQEND
8
0
0
POLYLINE
8
0
66
1
40
0.016000
41
0.016000
0
VERTEX
8
0
10
2.300000
20
1.900000
0
VERTEX
8
0
10
2.300000
20
2.000000
0
SEQEND
8
0
0
TEXT
8
0
10
2.340000
20
1.670000
40
0.080000
41
1.000000
50
90.000000
1
d
0
POLYLINE
8
0
66
1
40
0.016000
41
0.016000
0
VERTEX
8
0
10
2.160000
20
1.800000
0
VERTEX
8
0
10
2.240000
20
1.800000
0
VERTEX
8
0
10
2.200000
20
1.900000
0
VERTEX
8
0
10
2.160000
20
1.800000
0
SEQEND
8
0
0
POLYLINE
8
0
66
1
40
0.016000
41
0.016000
0
VERTEX
8
0
10
2.200000
20
1.900000
0
VERTEX
8
0
10
2.200000
20
2.000000
0
SEQEND
8
0
0
TEXT
8
0
10
2.240000
20
1.670000
40
0.080000
41
1.000000
50
90.000000
1
c
0
POLYLINE
8
0
66
1
40
0.016000
41
0.016000
0
VERTEX
8
0
10
2.060000
20
1.800000
0
VERTEX
8
0
10
2.140000
20
1.800000
0
VERTEX
8
0
10
2.100000
20
1.900000
0
VERTEX
8
0
10
2.060000
20
1.800000
0
SEQEND
8
0
0
POLYLINE
8
0
66
1
40
0.016000
41
0.016000
0
VERTEX
8
0
10
2.100000
20
1.900000
0
VERTEX
8
0
10
2.100000
20
2.000000
0
SEQEND
8
0
0
TEXT
8
0
10
2.140000
20
1.670000
40
0.080000
41
1.000000
50
90.000000
1
b
0
CIRCLE
8
16384
10
-2.900000
20
-1.000000
40
0.020000
0
CIRCLE
8
128
10
-4.130000
20
0.500000
40
0.020000
0
CIRCLE
8
128
10
-4.370000
20
0.500000
40
0.020000
0
POLYLINE
8
0
66
1
40
0.016000
41
0.016000
0
VERTEX
8
0
10
-4.400000
20
0.500000
0
VERTEX
8
0
10
-4.390000
20
0.500000
0
SEQEND
8
0
0
POLYLINE
8
0
66
1
40
0.016000
41
0.016000
0
VERTEX
8
0
10
-4.110000
20
0.500000
0
VERTEX
8
0
10
-4.100000
20
0.500000
0
SEQEND
8
0
0
POLYLINE
8
0
66
1
40
0.016000
41
0.016000
0
VERTEX
8
0
10
-4.350000
20
0.510000
0
VERTEX
8
0
10
-4.160000
20
0.630000
0
SEQEND
8
0
0
POLYLINE
8
0
66
1
40
0.016000
41
0.016000
0
VERTEX
8
0
10
-4.500000
20
0.500000
0
VERTEX
8
0
10
-4.400000
20
0.500000
0
SEQEND
8
0
0
POLYLINE
8
0
66
1
40
0.016000
41
0.016000
0
VERTEX
8
0
10
-4.000000
20
0.500000
0
VERTEX
8
0
10
-4.100000
20
0.500000
0
SEQEND
8
0
0
CIRCLE
8
255
10
-4.100000
20
0.600000
40
0.040000
0
POLYLINE
8
0
66
1
40
0.008000
41
0.008000
0
VERTEX
8
0
10
-4.100000
20
0.580000
0
VERTEX
8
0
10
-4.110000
20
0.590000
0
SEQEND
8
0
0
POLYLINE
8
0
66
1
40
0.008000
41
0.008000
0
VERTEX
8
0
10
-4.100000
20
0.580000
0
VERTEX
8
0
10
-4.090000
20
0.590000
0
SEQEND
8
0
0
POLYLINE
8
0
66
1
40
0.008000
41
0.008000
0
VERTEX
8
0
10
-4.100000
20
0.580000
0
VERTEX
8
0
10
-4.100000
20
0.620000
0
SEQEND
8
0
0
CIRCLE
8
255
10
-4.000000
20
0.600000
40
0.040000
0
POLYLINE
8
0
66
1
40
0.008000
41
0.008000
0
VERTEX
8
0
10
-4.000000
20
0.620000
0
VERTEX
8
0
10
-4.010000
20
0.610000
0
SEQEND
8
0
0
POLYLINE
8
0
66
1
40
0.008000
41
0.008000
0
VERTEX
8
0
10
-4.000000
20
0.620000
0
VERTEX
8
0
10
-3.990000
20
0.610000
0
SEQEND
8
0
0
POLYLINE
8
0
66
1
40
0.008000
41
0.008000
0
VERTEX
8
0
10
-4.000000
20
0.620000
0
VERTEX
8
0
10
-4.000000
20
0.580000
0
SEQEND
8
0
0
CIRCLE
8
16384
10
-4.700000
20
0.500000
40
0.020000
0
ENDSEC
0
EOF

